<svg xmlns="http://www.w3.org/2000/svg" xmlns:xlink="http://www.w3.org/1999/xlink" viewBox="0 0 126.99 83.49"><defs><style>.cls-1{fill:#285150;}.cls-2{clip-path:url(#clip-path);}.cls-3{clip-path:url(#clip-path-2);}</style><clipPath id="clip-path"><path class="cls-1" d="M114.66,55a17.44,17.44,0,0,1-7.77,11,26.47,26.47,0,0,1-9.09,3.69,34.57,34.57,0,0,1-9.06.83,29,29,0,0,1-6.58-.34c-4.13-.49-8.21-1.3-11.78-3.63a12.55,12.55,0,0,1-5.54-7.71,20.83,20.83,0,0,1,0-9.37,29.25,29.25,0,0,1,6.74-13.38,26.93,26.93,0,0,1,8.56-6.67,22.67,22.67,0,0,1,7.65-2.15A25,25,0,0,1,99.62,29a24.06,24.06,0,0,1,12.47,10.52,23.1,23.1,0,0,1,2.35,5.84,20.44,20.44,0,0,1,.22,9.65Zm7.4-11a32.24,32.24,0,0,0-4.44-10.57c-4-6-9.64-9.87-16.43-12.14a44.44,44.44,0,0,0-8.84-1.87,26.89,26.89,0,0,0-10.2.56,24.11,24.11,0,0,0-7.52,3.55A44.51,44.51,0,0,0,63.72,34.94c-2.31,3.26-4.49,6.61-6.8,9.88a11,11,0,0,1-3.25,3.33,1.9,1.9,0,0,1-1.8.21,6.49,6.49,0,0,1-1.8-1.05c-2-1.78-2.79-4.24-3.74-6.62-.43-1.08-.52-2.24-.9-3.33a7,7,0,0,1-.23-3.51,18.18,18.18,0,0,1,3.1-6.71c1.79-2.75,3.71-5.42,5.23-8.34a26,26,0,0,0,2.48-7A21.16,21.16,0,0,0,56.35,7a17.93,17.93,0,0,0-.41-2.84c0-.2-.08-.69-.49-.27a27.84,27.84,0,0,1-4.7,3.76,5.28,5.28,0,0,1-2.49,1.15c-1.51.06-3,.25-4.53.27a14.92,14.92,0,0,0-7.16,2,16.58,16.58,0,0,0-5.38,5,1.2,1.2,0,0,1-1.49.56,38,38,0,0,0-5.85-.9,19.14,19.14,0,0,0-4.18-.05,15,15,0,0,0-5.37,1.43,11.22,11.22,0,0,0-2.82,2.23,2.91,2.91,0,0,1-2.24,1.05A8.5,8.5,0,0,1,4.56,19c-.19-.12-.36-.31-.61-.18s-.17.43-.15.67a6.72,6.72,0,0,0,.6,1.58,11.39,11.39,0,0,0,3.59,5,34.09,34.09,0,0,0,6.43,4.26c2.89,1.53,5.87,2.87,8.79,4.33a42.28,42.28,0,0,1,7.91,4.93,14.34,14.34,0,0,1,4.09,5,26.78,26.78,0,0,1,2,6.52,23.29,23.29,0,0,1,.57,3.2,29.26,29.26,0,0,0,.35,4.75A20.58,20.58,0,0,0,39.55,64c1.2,2.48,3.32,4.09,5.56,5.51A44.62,44.62,0,0,0,53,73.37c2.6,1,5.24,1.85,7.91,2.59s5.46,1.36,8.22,1.94c3,.62,6,1.05,8.95,1.42a35.59,35.59,0,0,0,6.92.37c2.79,0,5-.08,7.23-.27s4.31-.46,6.44-.81a41.35,41.35,0,0,0,7.41-2,29.06,29.06,0,0,0,9.94-5.75c4.92-4.5,6.93-10.26,7.17-16.74A38.89,38.89,0,0,0,122.06,44Z"/></clipPath><clipPath id="clip-path-2"><path class="cls-1" d="M98.47,34.78a8.86,8.86,0,0,0-6.92,3.62,22,22,0,0,0-1.68,2.74,13.37,13.37,0,0,0-3.14-4.36A8,8,0,0,0,74.9,37.84a11.75,11.75,0,0,0-2.26,6.4A9.44,9.44,0,0,0,74.4,51a19.33,19.33,0,0,0,6,4.8c3.82,2.25,7.26,4.88,9.57,8.89.25-.4.44-.73.65-1a26.78,26.78,0,0,1,7.64-7.22,45.33,45.33,0,0,0,5.7-3.95A9.15,9.15,0,0,0,107,47.23a13,13,0,0,0-.91-7.35A8.22,8.22,0,0,0,98.47,34.78Z"/></clipPath></defs><title>Asset 2</title><g id="Layer_2" data-name="Layer 2"><g id="Layer_1-2" data-name="Layer 1"><path class="cls-1" d="M114.66,55a17.44,17.44,0,0,1-7.77,11,26.47,26.47,0,0,1-9.09,3.69,34.57,34.57,0,0,1-9.06.83,29,29,0,0,1-6.58-.34c-4.13-.49-8.21-1.3-11.78-3.63a12.55,12.55,0,0,1-5.54-7.71,20.83,20.83,0,0,1,0-9.37,29.25,29.25,0,0,1,6.74-13.38,26.93,26.93,0,0,1,8.56-6.67,22.67,22.67,0,0,1,7.65-2.15A25,25,0,0,1,99.62,29a24.06,24.06,0,0,1,12.47,10.52,23.1,23.1,0,0,1,2.35,5.84,20.44,20.44,0,0,1,.22,9.65Zm7.4-11a32.24,32.24,0,0,0-4.44-10.57c-4-6-9.64-9.87-16.43-12.14a44.44,44.44,0,0,0-8.84-1.87,26.89,26.89,0,0,0-10.2.56,24.11,24.11,0,0,0-7.52,3.55A44.51,44.51,0,0,0,63.72,34.94c-2.31,3.26-4.49,6.61-6.8,9.88a11,11,0,0,1-3.25,3.33,1.9,1.9,0,0,1-1.8.21,6.49,6.49,0,0,1-1.8-1.05c-2-1.78-2.79-4.24-3.74-6.62-.43-1.08-.52-2.24-.9-3.33a7,7,0,0,1-.23-3.51,18.18,18.18,0,0,1,3.1-6.71c1.79-2.75,3.71-5.42,5.23-8.34a26,26,0,0,0,2.48-7A21.16,21.16,0,0,0,56.35,7a17.93,17.93,0,0,0-.41-2.84c0-.2-.08-.69-.49-.27a27.84,27.84,0,0,1-4.7,3.76,5.28,5.28,0,0,1-2.49,1.15c-1.51.06-3,.25-4.53.27a14.92,14.92,0,0,0-7.16,2,16.58,16.58,0,0,0-5.38,5,1.2,1.2,0,0,1-1.49.56,38,38,0,0,0-5.85-.9,19.14,19.14,0,0,0-4.18-.05,15,15,0,0,0-5.37,1.43,11.22,11.22,0,0,0-2.82,2.23,2.91,2.91,0,0,1-2.24,1.05A8.5,8.5,0,0,1,4.56,19c-.19-.12-.36-.31-.61-.18s-.17.43-.15.67a6.72,6.72,0,0,0,.6,1.58,11.39,11.39,0,0,0,3.59,5,34.09,34.09,0,0,0,6.43,4.26c2.89,1.53,5.87,2.87,8.79,4.33a42.28,42.28,0,0,1,7.91,4.93,14.34,14.34,0,0,1,4.09,5,26.78,26.78,0,0,1,2,6.52,23.29,23.29,0,0,1,.57,3.2,29.26,29.26,0,0,0,.35,4.75A20.58,20.58,0,0,0,39.55,64c1.2,2.48,3.32,4.09,5.56,5.51A44.62,44.62,0,0,0,53,73.37c2.6,1,5.24,1.85,7.91,2.59s5.46,1.36,8.22,1.94c3,.62,6,1.05,8.95,1.42a35.59,35.59,0,0,0,6.92.37c2.79,0,5-.08,7.23-.27s4.31-.46,6.44-.81a41.35,41.35,0,0,0,7.41-2,29.06,29.06,0,0,0,9.94-5.75c4.92-4.5,6.93-10.26,7.17-16.74A38.89,38.89,0,0,0,122.06,44Z"/><g class="cls-2"><rect class="cls-1" width="126.99" height="83.49"/></g><path class="cls-1" d="M98.47,34.78a8.86,8.86,0,0,0-6.92,3.62,22,22,0,0,0-1.68,2.74,13.37,13.37,0,0,0-3.14-4.36A8,8,0,0,0,74.9,37.84a11.75,11.75,0,0,0-2.26,6.4A9.44,9.44,0,0,0,74.4,51a19.33,19.33,0,0,0,6,4.8c3.82,2.25,7.26,4.88,9.57,8.89.25-.4.44-.73.65-1a26.78,26.78,0,0,1,7.64-7.22,45.33,45.33,0,0,0,5.7-3.95A9.15,9.15,0,0,0,107,47.23a13,13,0,0,0-.91-7.35A8.22,8.22,0,0,0,98.47,34.78Z"/><g class="cls-3"><rect class="cls-1" x="68.85" y="30.9" width="42.13" height="37.49"/></g></g></g></svg>