<?xml version="1.0" encoding="utf-8"?>
<!-- Generator: Adobe Illustrator 22.1.0, SVG Export Plug-In . SVG Version: 6.00 Build 0)  -->
<svg version="1.1" id="Layer_1" xmlns="http://www.w3.org/2000/svg" xmlns:xlink="http://www.w3.org/1999/xlink" x="0px" y="0px"
   viewBox="0 0 246 578.6" style="enable-background:new 0 0 246 578.6;" xml:space="preserve">
<style type="text/css">
  .st0{clip-path:url(#SVGID_2_);}
  .st1{fill:url(#SVGID_3_);}
  .st2{fill:url(#SVGID_4_);}
</style>
<title>Asset 2</title>
<g id="Layer_2_1_">
  <g id="Layer_1-2">
    <g>
      <defs>
        <rect id="SVGID_1_" x="-9.3" y="0.5" width="256" height="643"/>
      </defs>
      <clipPath id="SVGID_2_">
        <use xlink:href="#SVGID_1_"  style="overflow:visible;"/>
      </clipPath>
      <g class="st0">
        
          <linearGradient id="SVGID_3_" gradientUnits="userSpaceOnUse" x1="201.2292" y1="596.8557" x2="204.1692" y2="95.6257" gradientTransform="matrix(1 0 0 -1 -9.32 675.2114)">
          <stop  offset="0" style="stop-color:#FF6F64"/>
          <stop  offset="0.35" style="stop-color:#FF796F"/>
          <stop  offset="0.97" style="stop-color:#FF938E"/>
          <stop  offset="1" style="stop-color:#FF948F"/>
        </linearGradient>
        <path class="st1" d="M40.1,391.5c35.2,56.4,83.3,93.6,132.6,128.6c84.6,60,161.1,130.3,212.3,237.4V127l-0.6,1.3
          c-18.1-45.3-39.5-84.7-69.8-117C234.4-74.5,116.3-62.3,51.3,40C19.3,90.4,5.2,148.6,1,211.5C-3.4,277.4,6.7,337.9,40.1,391.5z"
          />
        
          <linearGradient id="SVGID_4_" gradientUnits="userSpaceOnUse" x1="289.2021" y1="650.0357" x2="291.7621" y2="215.4557" gradientTransform="matrix(1 0 0 -1 -9.32 675.2114)">
          <stop  offset="0" style="stop-color:#FF6F64"/>
          <stop  offset="0.35" style="stop-color:#FF796F"/>
          <stop  offset="0.97" style="stop-color:#FF938E"/>
          <stop  offset="1" style="stop-color:#FF948F"/>
        </linearGradient>
        <path class="st2" d="M84.3,296.4c45.3,48.9,107.2,81.2,170.6,111.4c108.9,52,207.2,112.9,273.1,205.7V67.3l-0.8,1.1
          C504,29.2,476.5-5,437.5-33C334.3-107.3,182.3-96.8,98.8-8.1C57.6,35.6,39.3,86,34,140.5C28.3,197.6,41.3,250,84.3,296.4z"/>
      </g>
    </g>
  </g>
</g>
</svg>
