<?xml version="1.0" encoding="utf-8"?>
<!-- Generator: Adobe Illustrator 22.1.0, SVG Export Plug-In . SVG Version: 6.00 Build 0)  -->
<svg version="1.1" id="Layer_1" xmlns="http://www.w3.org/2000/svg" xmlns:xlink="http://www.w3.org/1999/xlink" x="0px" y="0px"
   viewBox="0 0 236.7 607" style="enable-background:new 0 0 236.7 607;" xml:space="preserve">
<style type="text/css">
  .st0{clip-path:url(#SVGID_2_);}
  .st1{fill:url(#SVGID_3_);}
  .st2{fill:url(#SVGID_4_);}
</style>
<title>Asset 1</title>
<g id="Layer_2_1_">
  <g id="Layer_1-2">
    <g>
      <defs>
        <rect id="SVGID_1_" x="0.6" y="-15" width="251" height="623"/>
      </defs>
      <clipPath id="SVGID_2_">
        <use xlink:href="#SVGID_1_"  style="overflow:visible;"/>
      </clipPath>
      <g class="st0">
        
          <linearGradient id="SVGID_3_" gradientUnits="userSpaceOnUse" x1="52.3812" y1="54.55" x2="42.3811" y2="521.43" gradientTransform="matrix(1 0 0 -1 0 468)">
          <stop  offset="0" style="stop-color:#A1D8D5"/>
          <stop  offset="0.31" style="stop-color:#ACE1DE"/>
          <stop  offset="0.85" style="stop-color:#CBF8F5"/>
          <stop  offset="1" style="stop-color:#D4FFFC"/>
        </linearGradient>
        <path class="st1" d="M198.3,197.5c-33.8-58.6-79.8-97.3-127-133.7C-9.8,1.4-83-71.6-132.1-183v655.4c0.2-0.4,0.4-0.9,0.6-1.3
          c17.3,47,37.9,88.1,66.9,121.6c76.8,89.2,190,76.6,252.2-29.8c30.7-52.4,44.2-113,48.2-178.3C240,316.1,230.4,253.2,198.3,197.5
          z"/>
        
          <linearGradient id="SVGID_4_" gradientUnits="userSpaceOnUse" x1="0.9795" y1="4.1702" x2="-6.7405" y2="365.0402" gradientTransform="matrix(1 0 0 -1 0 468)">
          <stop  offset="0" style="stop-color:#A1D8D5"/>
          <stop  offset="0.31" style="stop-color:#ACE1DE"/>
          <stop  offset="0.85" style="stop-color:#CBF8F5"/>
          <stop  offset="1" style="stop-color:#D4FFFC"/>
        </linearGradient>
        <path class="st2" d="M148.9,297.4C114.7,252.1,68,222.3,20.2,194.2C-62,146.1-136.3,89.7-186,3.8v505.8l0.6-1
          c17.6,36.3,38.4,68,67.8,93.8c77.9,68.8,192.6,59.1,255.7-23c31.1-40.4,44.9-87.2,48.9-137.7
          C191.2,388.9,181.5,340.4,148.9,297.4z"/>
      </g>
    </g>
  </g>
</g>
</svg>
