<svg xmlns="http://www.w3.org/2000/svg" viewBox="0 0 1254.67 629"><defs><style>.cls-1{opacity:0.15;}.cls-2{fill:#b7d1de;}</style></defs><title>Asset 1</title><g id="Layer_2" data-name="Layer 2"><g id="Layer_1-2" data-name="Layer 1"><g class="cls-1"><path class="cls-2" d="M1213,120l7-4c-.35-2.82-4.86-6.42.74-7.1,3.06,2.84,5,5.53,7.77,7a122.59,122.59,0,0,0,15.21,6.26,7.75,7.75,0,0,0,4.85,0c.68-.26.76-2.34.5-3.5s-1.31-2-2.3-3.36c4.1-1.42,9.86-1.59,7.27-7.21l-19.71-1.92c-17.62-10.35-37.11-18.34-60.14-19.44l-2.35,4.94c-9.82-.22-19.12-6.6-28.78,1.41-2.29-1.87-4.89-3.59-6.87-5.72-4.07-4.38-10-6.19-15.24-4.35-9.59,3.34-15.73-1.77-23-4.76-2.79-1.15-6.34-2.77-8.89-2.16-8.1,1.94-13.8-2.49-20.91-4.36-4.89,1-7.72,3.33-4.22,9l-26-1.89c-2,3.74-6.22,3.68-17.92-1.81l4.56-3.28c-5.44-8.53-15.68-8.75-21.7-.33-17.62-7.64-35.84-9.16-54.77-2.5,4.06-2.75,8.9-4.14,12.54-6.76,3.09-2.23,6.44-5.78,6.66-8.91.26-3.57-14.28-9.6-18.3-7.37-6.34,3.51-8.77.52-12.48-2.93-4.71-4.38-10.06-3-12.25,2.72a52.54,52.54,0,0,0-1.48,5.11c-6.6,0-13.08-.69-19.26.18-7.6,1.07-15,3.44-22.41,5.28a10.92,10.92,0,0,0-2,.74c-2.92,1.35-4.12,3-.61,4.82a17.78,17.78,0,0,0,4,1l-1.92,2.27c-4.17,0-8.44-.47-12.47.18-2.26.36-5.32,2.33-5.78,4-.39,1.41,2.4,3.53,3.94,5.23,2.25,2.48,4.64,4.86,7,7.29-5.61-1.69-9.71-4.41-14-6.84a5.64,5.64,0,0,0-4.32-.33,5,5,0,0,0-2,3.5c-.15,1,.71,2.2,1.13,3.31l-2.38,1.06-9.23-12.15c-1.59,2.8.13,19.22,2.32,20.67,1.07.71,3,.37,4.51.71,2.8.64,6.14.84,8.18,2.31,2.39,1.72,3.65,4.61,5.72,7.43a10,10,0,0,1-2.26-.84C851,94.74,851,94.74,845.69,105c-.19.37-.34.76-.57,1.12-2.8,4.34-6.55,5.19-12.71,2,2.58-1,4.67-1.33,5.58-2.37,1.89-2.16,4.86-5,4.38-7.06a226.55,226.55,0,0,0-8.28-26.34c-.67-1.81-4.1-4.4-5.59-4.1-2.26.45-4.38,2.87-5.74,4.86a29.07,29.07,0,0,0-3.29,7.63c-.7,2.19-1.91,4.79-1.13,6.67,1.15,2.76,4,5,5.86,7.56.83,1.19.89,2.79,1.3,4.2L824,100c-6.8-8.06-15.54-11.27-26.45-9.39l.64,7.69-1.57.31-3.13-3.54c-5.94,1.52-11.7,4.79-15.86,3.68-7.84-2.1-12.23,1.58-17.54,4.37-2.4,1.26-4.59,2.81-7.46,4.58-2.13-5.51-2-11.93-11.64-9.27l5.15,13.36c-2.08-.66-3-1.27-3.73-1.12-4,.84-8,1.86-12,2.82.68,1.66,1.77,3.29,1.89,5,.08,1.12-1.21,2.31-1,1.92-4-1.62-7.29-4.17-9.18-3.54-7.05,2.35,2.12,4.51.93,7.21-7.48-3-10.35-7.43-9.45-14.2,3,.47,6.32,1.83,9,1.18,3.49-.86,6.44-3.29,9.63-5-2-2-3.52-4.61-6-5.73-8.16-3.66-16.66-6.74-25-10.1-1-.4-2.49-1.06-2.61-1.75-1.32-7.61-6.27-3.57-10.21-3a29.23,29.23,0,0,0-9.53-1.83c-.52,0-1.08,3-1.72,5-4.17-1.42-8.52-4.59-12.68-.13l3.93,5.15c-5.35,2.32-9.94,5.54-15,6.22-9.24,1.25-13,6.93-16.4,12.77-4.49,7.61-9.91,14-19.82,16.79-5.91,1.67-9.57,6.41-8,10.56,1.84,4.9,4.15,9.68,6.62,15.37,3.57-1.38,7-2.63,10.29-4,3.88-1.57,6.92-1,8.84,2.43,1.68,3,3.54,6,4.89,9.19,2.33,5.43,3.46,5.9,7.71,1.32,3.17-3.41,4.28-8.47,7.91-11.27,6-4.63,6.26-8.13,1.06-13.27-4.72-4.66-2.36-9.1,4.24-12.5,3.24-1.67,5.34-5,7.8-7.73,1.71-1.89,2.93-5.39,4.77-5.61,3-.35,6.29,1.42,8.82,2.11-2.93,2.6-4.71,4.19-6.5,5.77a21.93,21.93,0,0,1-3.47,3c-6,3.42-7.21,8.6-3.22,15,2.9,4.63,8.2,5.55,15.22,2.64,4.6-1.91,5.49-1.44,7.15,4.25-6.81-2.68-12-1.44-15.63,4.27l4.62,4.38L679,157.1l-8.83-3.82a40.49,40.49,0,0,1-.88,5.77c-1.36,4.53-1.8,12.44-7.49,11.41-8.88-1.62-15.05,3.54-23,3.37-6-.12-10.37-3.06-8.67-8.16.38-1.15,1.38-2.14,1.83-3.28,1.29-3.27-2.26-7.84-3.87-7.76-1.59,2.51-2.26,5.29-3.82,5.72-5.4,1.5-4.28,3.79-2.21,6.82,1.57,2.29,2.77,4.76,4.23,7.3-7.47,3.51-18.25,1.75-18.1,12.24-10.21-3.4-10.55,12.78-19.34,8L574,202c15.2,3.8,14.56,12,10.89,21.4-6.69-1-12.88-1.95-19.11-2.69-4.75-.56-7.84,2-7.31,5.52.81,5.45,1.63,10.47-3.16,14.94-.57.54-.61,2.43-.12,2.72,3.7,2.2,2.78,10.25,11.21,6.65.39-.17,1.69,1.07,2.46,1.73,2.19,1.89,17.18,1.32,18.81-.94a71,71,0,0,0,5.12-8.52c1.06-2,1.14-4.6,2.64-6.27,3.82-4.22,8.19-8.07,13.53-13.21,5.67,3,12.64-.16,18.19-3.29,4.66,4.36,8.13,8.65,12.75,11.64,6,3.89,13.15,6.62,12.18,14.92l2.3,0,2.8-8.21,7.53,1.54c-2.51-2.45-3.73-3.57-4.85-4.75-5.71-6-15.84-7.88-19.54-16.13-1.5-3.33-1.91-5,1.67-7.08a21.94,21.94,0,0,1,2.74,1.89c3.77,3.59,7.34,7.33,11.23,10.81,2.41,2.16,6.11,3.54,7.75,6,3.52,5.27,6,11.06,9.11,16.52a6.46,6.46,0,0,0,3.93,2.71c.87.16,2.19-1.55,3.35-2.37s2.56-1.72,4.28-2.86l-6-3.73c4-7,11.86-5.41,18-7.11-7.5,10.72-6.18,14.22,7.89,20.63l4.84-2.54c2.86.87,5.19,2,7.64,2.23,2.75.31,5.61-.12,8.61-.24.48,2.17,1.65,4.14,1.11,5.66-1.7,4.77-3.39,9.73-6.5,13.82-1,1.32-6.44-.12-9.73.32-2.72.36-5.28,1.64-8.42,2.69-1.27-.63-3.66-2.83-5.6-2.57-7.07.94-11.81-3.28-16.8-5.7-5.41-2.63-8-1.36-10.4,2-1.37,1.91-1.54,4.45-2.52,7.58-2.9-1.21-5.65-2.41-8.45-3.49q-7-2.71-14-5.3c-4.06-1.5-8.14-2.94-12.21-4.41l2.67-1.4c.24-3.58,1.72-7.56.38-10.63s-5.88-3.53-9.79-1.59a5.06,5.06,0,0,1-2.79.16,54.42,54.42,0,0,0-33.75,5.44c-6.85,3.48-11.18,2.21-16.68.1-2.73,3.19-4.67,8-8,8.8-6.6,1.7-7.29,5.09-8,9.81a17.06,17.06,0,0,1-4.71,8.73c-2.38,2.41-7.06,3.27-9.06,5.79-3.71,4.67-7.3,9.82-8.93,15.21-2,6.49-3.26,13.62-2.2,20.15s.71,11.46-6.73,15.2c3.82,2.31,8,4.24,4.42,8.75-.35.45,1.17,2.15,2.07,3.09s2.43,1.71,3.36,2.75c8,8.9,15.74,18,24.14,26.62,1.28,1.31,5.73,1,8.5.47,3.7-.66,7.35-3.43,10.74-3.11a36.73,36.73,0,0,0,21.38-4.21c2.28-1.19,5.46-1.46,8.23-1.46,1.5,0,4.2,1.34,4.3,2.24.65,6.06,5.88,6.5,11.07,7.44a60.72,60.72,0,0,1,7.66,2.33c-.32,5,1.12,10-1.18,12.74-4.82,5.74-.89,8.41,3,11.88,2.9,2.6,6.87,5.15,7.88,8.31,2.66,8.29,4,16.9,6,26.44-1.31,2-3.34,5.37-5.71,8.58-4.63,6.29-4,12.34-.28,18.87,3.31,5.76,7.88,12,7.74,18-.22,10,6.51,17.35,9.81,25.93,1.24,3.24,4.22,6.8,3.44,9.61-1.26,4.53,1.43,6.88,4.61,8.25,2.47,1.06,6.24.11,9.38-.27a64.48,64.48,0,0,0,9.33-1.8c5.86-1.61,11.84-3.09,17.36-5.37,2.71-1.12,4.66-3.77,6.67-5.92a50.3,50.3,0,0,0,4.83-6.29c.8-1.19.84-3.46,1.82-3.75,5.43-1.59,4.65-5.51,5.42-9,.39-1.79,1.41-4.71,2.67-4.93,8.77-1.53,7.28-7.35,6.65-12-.56-4.19-3.18-8.13,1.47-11.81,3.4-2.69,6-6.31,9.89-8.29,13.37-6.9,11.08-9.39,9.59-17.78s-5-16.78-4.89-25.15c.11-10.5,8.49-18.23,16.71-25.51,6.72-6,14.41-11.39,19.63-18.21,4.93-6.43,7.19-14.35,10.83-22l-4.65-4.84c-2.76,1.32-4.93,2.44-7.19,3.42a58.16,58.16,0,0,1-7.05,2.72c-5,1.43-16.35-2.43-18.52-5.86-5-7.87-10.19-15.63-15.21-23.48-4-6.22-7.84-12.49-11.72-18.76a1.4,1.4,0,0,1-.24-1.18c3.77-6.87-3-10.1-6.61-14.52-2.57-3.16-4.58-6.66-7.24-10.6,4.37,2.34,7.43,3.75,10.16,5.54a15.3,15.3,0,0,1,3.76,4c1.31,1.8,2.27,3.78,3.48,5.64,2.72,4.2,5.55,8.35,8.25,12.56,1.58,2.48,2.7,5.21,4.53,7.54,6.34,8.12,14,15.64,12.47,26.6-.22,1.57,2.22,4.06,4.16,5,1,.49,3.61-1.57,5.56-2.32q5.51-2.13,11.13-4.07c1.48-.51,3.23-.51,4.63-1.12,5-2.16,9.79-4.46,14.52-7,12.61-6.88,13.7-6.46,19.81-16.48a8.77,8.77,0,0,1,2-1.68c5.23-4.37,3.6-10-3.06-12.56-3.46-1.34-6.28-3.89-10-6.27a6.07,6.07,0,0,1-2.08,2c-2.82,1.46-5.88,3.58-8.84,3.58-3.15,0-7-1.46-5.74-6,.22-.75-2.4-2.1-3.72-3.16-4.88-4-10.34-7.57-11.91-14l9.23.67-1.2,1.11c3.62,3.28,6.93,6.89,10.94,9.77,5.12,3.67,10.66,2.92,15.66-.86,3.26,8.51,15.09,11.23,21.28,7l16.39,2.3c.6.45,2.76,2,4.82,3.6,2.23,1.76,5.14,3.29,6.4,5.49,4.51,7.89,6,8.58,14.9,4.77a23.46,23.46,0,0,1,.58,4.8c-.74,8.63,2.07,16.22,7.16,23.74,4.11,6.07,6.21,13.14,9.34,19.71a30.05,30.05,0,0,0,3,4.27c1.86-1.05,4.19-1.79,5.51-3.21,5.3-5.7,4.94-12.36,4-19.12-.3-2-.68-5,.63-6.14,5.21-4.67,11.07-8.81,16.7-13.14,2.92-2.24,8-4.27,8.35-6.74.8-6.38,5-6.28,9.37-5.75l5.64-6.16c2.37,3.59,4,7.08,6.65,9.84,4.57,4.77,9,9.13,8,16.15-.47,3.31,3,4.49,6.35,2.15,1.34-.94,1.87-2.72,2.77-4.11l2.16,1.13c.46,1.69,1.68,3.55,1.25,5.05-2.17,7.5,3.81,13.29,5.47,20,.67,2.69,5.53,5,5.4,7.38-.52,9.52,3,17.66,9,25.28l10,2.19c1.74-8.3,2.19-15.13-5.26-20.61-5-3.66-9.69-7.69-10.67-13.62a27.64,27.64,0,0,1,.21-8.08c.05-.39,3.25-1,3.48-.74a77.39,77.39,0,0,1,4.26,6.89,10.08,10.08,0,0,0,1.12,1.21c12.79-4.16,4.37,7,9.34,9.84,5.82-5.35,14.8-8.11,15.45-17,.54-7.43-2-13.32-9.14-18.1-7.57-5.07-7.35-8.35-.86-13.59,1.62-1.31,2.7-3.11,4.35-5.06l3.34,5.92c6.3-5.17,12.37-9.71,21.62-7.63,1.45.33,4.14-1.15,5.29-2.43,5.47-6.13,12.12-11.61,15.05-19.22.53-1.38,2.83-2.94,2.44-3.8-2.87-6.41-.72-14.12-7.63-19.62a14.21,14.21,0,0,1-4.83-9.17c-.14-1.39,4.7-3,7-4.77,1-.78,2-2.91,1.6-3.34a10.47,10.47,0,0,0-5.3-3.06c-1.41-.2-3.11,1.86-4.8,2-2.06.21-4.73,0-6.23-1-1.2-.81-2.06-3.82-1.3-4.6,2.72-2.8,6.19-5.07,10.08-8.09l1.75,8.51L1063.7,238l.92,1.88-3.5,4.73c7.65,2.19,10,7.76,11.08,13.47.79,4.22,3,6.13,7.6,4.09,5.54-2.48,5.25-6.91,3-10.56-2.81-4.49-7-8.34-10.11-11.89,2.08-3.06,5.33-6,6.12-9.46,1-4.41,3.44-5.33,8-5.67,3-.22,6.85-1.09,8.64-2.9,11.89-12,14.88-26.15,11.61-41.16-1.64-7.52-8.5-9.35-14-5.16l-8.94-6.4c2.79-3.57,5.89-6.91,8.21-10.62,6.09-9.75,10.81-11.81,23.95-9.89,3.64.53,7.35,1.83,10.12-2,.42-.59,4.47.61,6.79,1.16s4.57,2.1,6.35,1.67c2-.48,3.76-2.53,4.92-4.25.88-1.3.16-3.38,1-4.72,1.35-2.16,3.16-5.38,5.22-5.65,2.91-.38,6.29,1.41,9.35,2.49,1.17.42,2,1.46,3.37,2.47l5.83-6.54c4.44,3.93,1.66,6.05-1.05,9-4.88,5.27-10.71,10.66-12.86,16.83-3.19,9.14,4.64,16.88,8.65,25,.43.87,2.17,1.27,4,2.27,1.55-2.47,3-4.51,4.15-6.65,1.58-2.91,2.37-6.27,4.54-8.77,4.34-5,4.71-11.31.05-15.17-4-3.29-3.8-7.18.45-10,8.77-5.89,13.71-6.07,21.85-.8,4-2.83,1.37-9.74,9.29-10.48,5-.46,9.77-2.26,16.4-3.89C1226.51,124.36,1216.66,124.25,1213,120ZM746.84,230.55c-.05,1-3.32,2.86-5,2.78-4.61-.21-10.35,0-13.46-2.25-4.62-3.3-8.18-3-13.24-1.78-6.29,1.46-12.93,1.78-20,2.66-1.55-7.76.58-11.6,7.17-15.35,1.67-.95,2.17-3.45,3.13-5.27.87-1.65,1.62-3.34,2.68-5.53l7.34,8.24-6.38,3,1.32,2.52L725.81,217l-.14-1.79-6.29-2-.68-1.59,15.79-6,1,1.12-8.53,8.11c6.22,3.62,11.92,6.6,17.11,10.14A7.22,7.22,0,0,1,746.84,230.55Zm47.32,3.76-5.28-3.1c1.77,5.59,3.31,10,4.53,14.4,1.11,4-3.42,7.9-8.07,7.06-8.49-1.53-11.75-8.19-6.93-14.33.45-.58,1.69-.7,3.08-1.23-8.2-6.21-17.19-12.08-14-20.6,2.81-7.5,12-10.55,22.13-8.23l-.53,3.85c-3.35,2.47-6.75,4.16-8.55,6.68-.8,1.11,1.2,4.22,2.74,5.87s4,2.39,6.74,3.94l3.51-1,2.27,6.1Zm22.73-14.53a115.2,115.2,0,0,1,5.77-11.28c.24-.38,5.49.52,5.68,1.31,1,4.13,1.09,8.42,1.64,14.07Z"/><path class="cls-2" d="M989.33,389.26l-.13-.17-.08,0Z"/><path class="cls-2" d="M449.56,413.07a42.93,42.93,0,0,0-8.07-3.73c-6.35-1.89-14.35.3-19-6-.77-1-3.39-1.36-5.21-1.49-4-.28-8.49,2.49-11.79-1.83-.22-.28-3.38.74-4.83,1.58a12.76,12.76,0,0,0-1.9,1.39c-.34.29-.88-.07-.64-.43,6.48-9.63,5.57-12-4.33-21.38-5.85-5.57-11.36-6.87-17.53-4.09a.46.46,0,0,1-.49-.07l-18.54-17.43a.31.31,0,0,1,0-.46l.76-.78c.22-.22,0-.56-.29-.57-2.59-.13-5.49-.73-7.44.17-9,4.13-15.7.91-22.94-3.55-3.15-1.94-9.39-3.49-12-2.11-7,3.68-14.76,7.43-16.66,14.33a.42.42,0,0,1-.55.25c-4.46-1.61-8.77-4.43-12.49-4-9.1,1.17-14.19-1.66-13.44-9.67.36-3.88,1.48-7.71,2.52-12.79a.36.36,0,0,0-.32-.41l-16.68-2.83a.36.36,0,0,1-.33-.42c1.06-4.21,2.53-9.15,3.38-14.17.34-2-.61-4.14-1.07-6.24a.41.41,0,0,0-.5-.27,93.9,93.9,0,0,0-10.57,2.49c-1.11.38-1.4,2.46-2.12,3.73-3.49,6.21-18.23,7.76-21.58,1.65a38,38,0,0,1-4.33-18.12c.07-10.12,8.8-16.37,16.51-22.91a.47.47,0,0,1,.53,0l4.48,2.71a.46.46,0,0,0,.58-.09l3.08-3.74a.43.43,0,0,1,.74.17c.77,5.66,4.72,5.49,8.37,4.85a.4.4,0,0,0,.31-.24c.75-2,.87-3.87,2-4.69,4.49-3.18,20.34-.11,22.81,4.32.63,1.14.25,2.7.26,4.07,0,6.56,2.57,11.81,11.63,15.68.3.13.63-.09.59-.37-1.1-6.59-1.74-12.07-3-17.43-3.11-12.79.24-18.93,13.51-23.75,8.59-3.12,10.18-6.11,7.29-12.69a.31.31,0,0,1,0-.32c3.28-4.37,5.58-9,9.53-12.15s9.52-4.85,14.59-7.2a.33.33,0,0,0,.13-.52c-3.18-3.74-1.27-5.93,3.53-8.17,5.23-2.43,9.75-6,14.66-8.95,2.2-1.32,4.58-2.42,6.89-3.61a.45.45,0,0,1,.56.12l1,1.48a.32.32,0,0,1-.11.46c-3,1.91-6.18,3.7-9,5.82-1,.75-1.84,2.62-1.41,3.5s3.13,1.72,3.91,1.31c5.86-3.11,11.5-6.52,18.54-10.62a.34.34,0,0,0-.09-.63c-4-1.16-7.13-1.65-9.49-3.05a16.74,16.74,0,0,1-5.38-6c-.65-1.09-.09-2.71.07-4.15a.38.38,0,0,0-.42-.37c-2.27,0-4.68-.22-6.7.41-2.51.78-4.7,2.34-7,3.62a.45.45,0,0,1-.59-.13l-.72-1.16A.32.32,0,0,1,343,201c5.69-2.89,10-7.57,18.26-6.93,7.59.59,15.79,2,22-4,.65-.64,2.15-.76,3.28-.89,6.82-.8,8.07-2.57,6.78-9.25-1.06-5.5-4.86-3.41-8.76-2.35-.35.1-.66-.23-.48-.51l3.21-4.94a.34.34,0,0,0-.22-.5c-4.8-1.48-9.29-2.84-10.52-7.3-.52-1.89.71-4.3-.21-5.91-2.42-4.24-5.52-8.2-8.72-12.75a.45.45,0,0,0-.67,0c-4.19,4.54-6.7,12.33-15.37,8-2.38-1.19-1.35-7.36-2.1-13.12a.34.34,0,0,0-.12-.22c-5.21-4.34-14.19-7.49-24.83-8.72a.47.47,0,0,0-.35.1c-3.35,2.89-5.65,6.6-4,11.8.61,1.94.42,5.51-.91,6.21-5.24,2.73-2.79,6.08-2.27,9.52.48,3.14,1.67,8.56.29,9.16-7.34,3.19-6.52,8.63-6.09,13.63.52,6-4.57,5.83-8.56,7.09a.43.43,0,0,1-.52-.2c-1.27-2.81-3.12-5.56-3.47-8.45-.28-2.34.41-4.76,1-7.17.18-.76-.82-1.31-1.55-.86h0a.47.47,0,0,1-.44,0c-5.51-2.65-11-5.37-16.54-7.92-2.92-1.34-6.09-2.27-9-3.58-2.19-1-4.74-1.89-6.14-3.48-2-2.3-3.2-5.15-4.73-7.78a.31.31,0,0,1,0-.2c1.57-11.4,15.2-15.21,23.1-23.3.1-.11.46,0,.7,0,5.92-.17,7.24-3.36,7.28-7.45a.36.36,0,0,0-.22-.32l-4.3-2c-.41-.19-.18-.73.27-.65,4.52.74,9.05,2.71,10.94-3.83.08-.26,2.88.11,4.41.08,3.4-.06,7.19.56,10-.57,1.56-.62,1.49-4.23,2.17-6.48.37-1.24.37-2.72,1.2-3.66,3.2-3.63.66-5.83-2.71-7.16-3.2-1.27-6.65-2-8.8,2.17-1.94,3.72-4.75,7.12-8,11.7a.43.43,0,0,1-.76-.14l-1.66-12a.43.43,0,0,0-.71-.2l-5.19,4.85a.44.44,0,0,1-.7-.15c-1.35-4.25-2.33-7.7-3.61-11.06-.79-2.07-1.55-4.81-3.36-5.73-1.43-.72-4.9.39-6.68,1.56a23.52,23.52,0,0,0-4.55,4.38,2.08,2.08,0,0,0,.4,3.13c6.7,5,6.19,7.15,0,10.13a.5.5,0,0,1-.26,0c-5-.46-8.67-1.82-10.81-.78-9,4.35-14.74,4.39-23.13-.35-1.39-.79-4.94-.35-6.22.69-1.55,1.25-1.91,3.6-2.83,5.82a.42.42,0,0,1-.47.22c-5.33-1.12-8.53-9.94-16.83-2.77-.3.26-.8,0-.69-.33,1.92-6.16-1.93-6.71-6.11-7.42-6.17-1-12.25-2.52-18.37-3.81-1.37-.29-2.87-1.08-4.07-.82-6.78,1.47-13.16,2.18-16.88-4A.46.46,0,0,0,163,89l-9.73,6.75a.46.46,0,0,1-.58-.05l-.74-.79a.32.32,0,0,1,.07-.5l4.3-2.85a.34.34,0,0,0-.15-.62c-5.89-1.31-13.15,2.64-17.55,8.93a.43.43,0,0,1-.46.16c-7.71-1.93-16.38-2.51-22.56-6.18-8.32-4.93-17-.59-25.38-3.15-3.88-1.19-9,.36-11.43-4.4a.45.45,0,0,0-.66-.1c-4.38,3.67-8.25,5.38-10.41-.75a.43.43,0,0,0-.52-.24L58.61,87.5c-5.44,1.43-10.89,2.79-16.29,4.33a2.86,2.86,0,0,0-1.47,2c-1,4.37-4.55,4.89-9,5.13-2.49.13-4.89,1.59-7.32,2.57a.33.33,0,0,0-.14.54c1.85,1.93,3.4,4.32,5.77,5.43,3.25,1.52,7.08,2.11,12,3.33a.34.34,0,0,1,0,.68c-10.08,2.71-20.38-2.11-28.16,4.94a.31.31,0,0,0,0,.46c2.43,2.59,4.46,6.38,7.64,7.3s7.48-.59,11.39-1.29c.35-.06.63.27.44.53A13.85,13.85,0,0,1,27.09,128c-3.29,1.28-7.36,1.46-10.16,3.21s-4.57,4.74-7,7.49a.31.31,0,0,0,0,.44c1,.94,2.71,2,2.66,3.11-.26,6.26.15,6.88,6.34,5,.3-.09.61.13.54.4l-1.78,7.26a.38.38,0,0,0,.44.43l12.91-.76,1.7,2.35c-7.08,10.3-22.28,11.18-32.62,18.37a.33.33,0,0,0,.15.61c3.48.87,7.13,1.62,9.8.57,7.9-3.11,15.4-7,22.93-10.75,4.13-2.06,8-4.48,12-6.74a.38.38,0,0,0,.11-.09q6-7.53,12-15.07c2.25-2.84,4.72-4.78,8.2-2.52a.33.33,0,0,1,.05.53l-10.31,9.06a.31.31,0,0,0-.06.42L56.15,153a.42.42,0,0,0,.34.18c2.08,0,4.76.71,6-.14a48.82,48.82,0,0,0,10-9.06c2.19-2.76,3.26-3.43,6.24-.84,2.09,1.81,5.33,4.32,7.57,4,6.08-.87,9.36,2.29,13.43,4.77,3.16,1.92,5.12,5.67,10.48,4.74.88-.15,5.63.65,6,4.86.22,2.58,4.38,4.92,7.13,7.34a.34.34,0,0,1-.21.59h0a.35.35,0,0,0-.3.48l10.79,22.51a.3.3,0,0,1,0,.2c-.59,2.49-1.12,5.25.24,6.77,5.2,5.86,3.49,11.47,1.29,17.78-2.73,7.82-4.22,16-5.79,24.06-.34,1.75,1.06,3.83,2,5.66,1.46,3,3.14,5.9,4.74,8.85a.33.33,0,0,1-.17.45l-1.12.56a.32.32,0,0,0-.07.56L149,268.94a.34.34,0,0,1,.12.17c1.23,4.2,1.34,9.19,4.12,12.59,3.11,3.81,6.54,6.58,1.79,11.08a.33.33,0,0,0,.1.55c6.14,2.94,11.56,5.43,12.14,12.27.21,2.42,4.52,4.59,7.39,6.84a.42.42,0,0,0,.68-.24c.64-13.58-13.16-21.8-15.29-34-.05-.3.33-.52.63-.35,3,1.68,6.12,3.49,6.87,5.86,3,9.28,10.1,16.17,16.3,23.72,2.88,3.5,3.86,8.14,5.73,12.25.68,1.5.94,3.53,2.24,4.36A186.83,186.83,0,0,0,210,334.68c5.58,2.75,11.13,6,18.61,3.55,2.12-.69,5.78,1.93,8.64,3.19a113.48,113.48,0,0,1,10.39,5,73.71,73.71,0,0,1,10.71,7c4.33,3.62,2.73,11.55,11.77,12,.56,0,.75,2.15,1.56,2.47a68.41,68.41,0,0,0,12,3.91c1,.18,2.6-2.28,4.11-3.85a.46.46,0,0,1,.55-.06c6.54,3.86,7,10.06,7.5,15.95.16,1.79-1.74,4.28-3.56,5.54-9,6.26-12.42,15-8.31,22.62a.33.33,0,0,1-.13.44c-6.37,3.94-6.38,7-.2,11.32a5.47,5.47,0,0,1,1.33,2c2.39,4.32,4.82,8.63,7.14,13,5.74,10.78,9.64,22.64,24.83,27.31,2.67.82,5.8,3.86,6.21,6.19,1.54,8.8,3.14,17.79,2.62,26.61-.46,7.95-3.76,15.76-5.58,23.67-.49,2.12-1,4.77,0,6.52,3.5,6,1.38,11.3-1.09,16.88A18.6,18.6,0,0,0,317.5,554c.26,5.79,1.14,11.57,1.86,17.34.08.66.92,1.22,1.2,1.88,1.07,2.48,2.64,4.93,2.93,7.49.54,4.78-6,9.52-.25,14.5.16.13-.55,1-.91,1.57-3.15,4.54-.66,8.18,2.63,11.61,5.18,5.41,10.46,10.76,15.28,15.7a.47.47,0,0,0,.58,0l5.49-3.73a.33.33,0,0,0,.15-.3c-.29-3.58-.78-7.17-.72-10.75,0-1.59,1.15-3.2,1.94-4.73,2.13-4.15,4.51-8.22,6.37-12.45.29-.65-1.4-2.54-2.61-3-5.37-1.88-4.19-3.66-.74-6.48,8.36-6.82,8.83-10.53,3.39-18.92-.08-.12.25-.44.51-.72a.46.46,0,0,1,.47-.11c8.68,2.82,8.76,2.73,10.23-7.13a.38.38,0,0,1,.25-.29c6-2.22,12.83-3.27,16.85-6.7,5.29-4.52-1.05-8.57-3.68-12.71-.16-.25.08-.55.42-.52,13.82,1.45,18.27-1.1,19.13-9.34a.34.34,0,0,1,.1-.21c3.12-3,6.42-4.84,7-7.17,1.61-6.17,8.71-10.78,6.67-18-.32-1.12,1.08-3.27,2.39-3.94,7.75-3.94,15.71-7.59,24.58-11.8a.36.36,0,0,0,.2-.23c2.65-9.74,9.66-20.45,6.84-32.66a2.27,2.27,0,0,1,.5-1.74c4-5,8.35-9.78,12-14.92,2-2.78,4.7-6.45,4-9.13C461,420.56,455.61,416.35,449.56,413.07Z"/><path class="cls-2" d="M517.34,87.61,503,85.51a.27.27,0,0,1-.25-.34c1.74-4.62,4.22-5.63,8.31-2.79,1.29.89,2.46,2.1,3.94,2.55a26.83,26.83,0,0,0,5.55.6.29.29,0,0,0,.32-.23c.26-1.86,1.26-4.15.33-5.32-1.53-1.95-4.61-3-6.77-4.61a12.42,12.42,0,0,1-2.4-3.24.25.25,0,0,1,.18-.38c1.29-.33,2.57-.69,3.88-.94,1.9-.36,4.1-.2,5.69-1a59.54,59.54,0,0,0,10.06-6c1.63-1.26,2.38-3.37,3.48-5.16a.25.25,0,0,0-.13-.36c-8.7-3.9-8.71-4.75-2.3-9.52a4.53,4.53,0,0,0,1.5-4c-.21-.95-2.12-2.11-3.45-2.29a53.79,53.79,0,0,0-7.65-.11l-1.19-2.52,11.76-9.44a.25.25,0,0,0,0-.42l-4.46-2.48a.25.25,0,0,1,.05-.47c8.82-2.91,18.8-2.25,26.4-9.76a.25.25,0,0,0-.14-.43c-14.22-4.16-25.23-.08-35.7,6.18l-1.65-1.43,5-6a.23.23,0,0,0,0-.29c-.31-.41-.67-.82-1-1.23a.33.33,0,0,0-.38-.1c-3.77,1.4-7.5,2.81-12,4.42a.31.31,0,0,1-.43-.24V12.43a.3.3,0,0,0-.38-.25c-6.7,1.34-13.33,2.56-19.72,3.77a.31.31,0,0,1-.37-.21c-.11-.62-.2-1.24-.32-1.86a.27.27,0,0,1,.25-.3L521.7,8.79a.28.28,0,0,0,.25-.24c0-.58.07-1.17.11-1.75a.27.27,0,0,0-.24-.27c-3.6-.72-7.19-1.93-10.79-1.93s-7.35,1.23-11,2l-.32.06L499,4.35l1.71-.44a.25.25,0,0,0,.17-.39,12.21,12.21,0,0,0-1.8-2.39A4.11,4.11,0,0,0,496.63,0c-8.76,1.18-19,.56-25.79,4.37-6.14,3.43-9.79,5.68-16,1.86-.51-.31-1.52,0-2.4.08a.3.3,0,0,0-.28.23l-1.1,7.26a.3.3,0,0,1-.37.22L437,11.23a.32.32,0,0,0-.39.23l-1.19,8.09a.33.33,0,0,1-.55.13c-2.15-2.28-3.16-3.5-4.37-4.54s-2.78-2.62-4.44-2.94c-.83-.16-2.18,1.66-3.13,2.55a.33.33,0,0,1-.31.07c-2.94-.87-6.56-3-9.15-2.32-5.49,1.46-11.9,2.2-15.05,7.75-.83,1.45-4.31,2.35-6.66,2.5-4.42.29-7.39,1-6.85,5.66.14,1.17-1.21,3.12-2.48,3.66-6.65,2.84-13.54,5.28-20.25,8-1,.4-1.55,1.5-2.26,2.36a.24.24,0,0,0,.08.37c1.19.67,2.39,1.69,3.58,1.69,2.32,0,4.66-1.09,7-1,2.09,0,4.17.89,6.25,1.43a.26.26,0,0,1,.2.32l-.49,1.42a.3.3,0,0,1-.25.18L365,48a.26.26,0,0,0-.21.43c6.51,6.92,14.11,7,22.25,5.9,11.61-1.63,15.62.12,19.43,9.62a108.12,108.12,0,0,1,4.17,14.25c.56,2.24,3.06,3.73,5.71,3.41,1.5-.18,2.6.44,2.34,3.55a.28.28,0,0,1-.22.24l-3.05.83a1.65,1.65,0,0,0-.53,3.1h0c2.15,1.26,4.29,2.54,6.43,3.82a.24.24,0,0,1,.06.38c-1.81,1.95-3.28,4.41-5.62,5.59-4.77,2.41-6.63,6-4.51,9.75,6.3,11,3.46,25.85,20.79,32.52,8,3.08,10.07,4.09,13.21-3.73,1.73-4.32,4.48-8.34,6.63-12.54.73-1.43,1.68-3.09,1.44-4.51-.74-4.54,2.32-5.67,6.54-6.11,3.06-.32,6.11-.81,9.18-1,6.28-.39,10.88-2.09,11.78-8.33.59-4.08,4.06-4.9,8.53-4.13A27.12,27.12,0,0,0,517.57,88,.27.27,0,0,0,517.34,87.61Z"/><path class="cls-2" d="M358.92,84.9c-2.64-.91-5.63-1.3-7.95-2.6-2.62-1.47-5.75-3.36-6.74-5.68-2.07-4.84-5.87-5.75-10.64-4.54a40.94,40.94,0,0,0-7.21,2.83c-1.16.54-2.47-.5-1.91-1.52l0,0c2.7-4.88.87-7.05-5.52-6.79-5.34.22-7,3.42-8.52,7a3.77,3.77,0,0,1-.91,1.2,1.43,1.43,0,0,1-2.38-.75,6.41,6.41,0,0,1,.08-1.59,16,16,0,0,1,1.34-3.47,1.21,1.21,0,0,0-1.3-1.61c-6.34.16-9.84,2.92-11.51,7.53-1.49,4.1-2.61,8.5,3.47,10.2a1.17,1.17,0,0,1,.93,1.36l-.66,2.67a1.23,1.23,0,0,0,1.3,1.42c7.13.19,14.35-3.31,20.41,1.82.36.3,2.68-1.55,4.17-1.67,2.16-.18,5.39-.39,6.39.65,1.63,1.7,2.24,4.12,2.73,5.5a1.23,1.23,0,0,0,.68.7c3.89,1.71,8.44,2.63,9.39,4.74,1.14,2.54-.31,6.69-2.25,9.25-1.53,2-5.43,2.84-8.44,3.84-1.71.57-4.28-.13-5.5.73a16.62,16.62,0,0,0-3.68,4.39,1.07,1.07,0,0,0,.37,1.56c2.06,1.26,4.47,3.05,5.4,2.6,7.75-3.74,11.88.23,17.1,4.21,3.6,2.74,7.3,6.57,13.76,6.63,1,0,1.72-1,1.21-1.75l-2.1-3.26c-.73-1.14.91-2.3,2.08-1.47l.22.16c.89.62,1.82,1.19,2.76,1.76a1.52,1.52,0,0,0,1.92-.27c5.1-6.25,3.6-10.44-4.26-13.59a3.54,3.54,0,0,1-.15-6.57c1-.4,3.24.33,4.22,1.17,1.81,1.56,2.82,3.84,4.72,5.29,1.25,1,4.73,1.71,5,1.32,2.29-3,5-6.16,5.47-9.49.17-1.27-5.27-3.16-8.23-4.65-3.37-1.69-6.8-3.3-10.34-5a1.09,1.09,0,0,1-.47-1.69C368.83,90.57,367.44,87.82,358.92,84.9Z"/><path class="cls-2" d="M335.78,24.53c1.27-.27,1.81,1.35.56,1.68-.75.2-1.5.37-2.25.53-2.65.55-5.62.75-4.65,3.77.22.69-.55,1.3-1.33,1.06l-7.89-2.5c-.79-.25-1.57.38-1.33,1.07l2.86,8.09a.82.82,0,0,1-.44,1l-14.11,7.43a3.47,3.47,0,0,0-.43,6.16,5.23,5.23,0,0,0,2.35.9,122.89,122.89,0,0,0,24.7.15c6.45-.73,7.87-4.48,5.74-7.9a.78.78,0,0,1,.19-1c5-4.1,9.54-8.16,14.56-11.75,2.07-1.48,5.47-2.92,7.85-2.53,10.68,1.76,18.74-3.9,17.78-12.71a.9.9,0,0,1,.82-.93l17.2-2.81a.94.94,0,0,0,.82-.76l.15-1.1a.81.81,0,0,0-.38-.78c-2.05-1.35-4.34-3.64-6-3.35-11,2-23.47-6.08-33.89,4A1.12,1.12,0,0,1,357,12l-.17-.26a6.19,6.19,0,0,0-6.1-2.49,17,17,0,0,1-5.16.3c-4-.65-6.78-.17-9.07,3-2.17,3-5,3.07-8.42.84a8.93,8.93,0,0,0-6.28-1.11,55.36,55.36,0,0,0-8.16,3.49A3.36,3.36,0,0,0,312,20.69C317.86,29.41,326.87,26.4,335.78,24.53Z"/><path class="cls-2" d="M1016,397.23c1.88,2.72,4.29,5.23,5.77,8.1,3,5.85,7.34,7.22,13.11,4,2.88,1.62,5.87,4.28,7.12,3.78,2.33-.93,3.89-3.6,5.35-5.75,2.86-4.22,5.57-8.53,8-12.93.66-1.2.87-3.61,0-4.21-5.48-4-4-6.86,1.07-10.14,4.46-2.89,3.77-5.1-1.34-6.65-3.07-.93-6.07-2-8.33-2.75-4.3,4.06-8,7.83-12.05,11.26a62.74,62.74,0,0,1-8.37,5.42c-2,1.19-4.05,2.89-6.26,3.12C1014.92,391,1013.26,393.24,1016,397.23Z"/><path class="cls-2" d="M1169,426.07c1.52-5.68-4.78-7.45-7-11.18a21.41,21.41,0,0,0-3.52-4c-8.76-2.85-15.86-5.27-23.07-7.42-2-.6-4.85-1.18-6.42-.42-5.17,2.49-9.93,5.61-15.7,9a22.33,22.33,0,0,1,4.62,1.11c4.58,2.25,9.6,4.21,13.23,7.33,1.19,1-1.37,5.24-2.46,8.77,2.91.39,7.37.08,10.58,1.64,5.19,2.54,8.19,1.61,11.31-2.23s6.61-3.89,10-.05c1.28,1.46,2.26,3.12,3.62,4.51,3.94,4,10.23,4.84,16.87,1.56-2.8-1.72-5.2-3.07-7.43-4.61C1171.89,428.82,1168.75,427,1169,426.07Z"/><path class="cls-2" d="M244.27,72.76c-3.19-.43-6.57-1.74-7.76-.86-2.06,1.51-2.77,4.38-4,6.57-3.41-.36-3.5-9-9.47-2.61-3.27-3.72-11.75-3.28-15.54,1.69-2,2.58-3.26,3.69-6.81,3.35-1.18-.12-2.62,1.66-3.94,2.57,1.39.83,2.69,2.18,4.2,2.38a66.12,66.12,0,0,0,8.73.11l.12,1.29-12.52,2.67c10.26,7.91,48,10.84,51.66,4.54l-2.16-4.78,6.36-1.6C246.72,84.17,238.42,81.73,244.27,72.76Z"/><path class="cls-2" d="M761.73,453.21c-.11,1,.17,2.16-.39,2.86-3.12,3.93-5.54,9.63-9.9,11.16-6.78,2.38-12.84,7.71-9.15,13,3.34,4.79.62,7.24-2.15,10.5-1.24,1.45-1.68,3.41-2.49,5.13,6.62,1.67,1.44,6.15,3.26,9.66,2,.5,4.81,2.08,6.95,1.56,3.18-.78,6.9-2.49,8.58-4.77,5.26-7.14,2.53-16.45,8.31-23.79,2.51-3.19,2.72-7.64,4.66-11.25C772.11,462.3,767.86,453.66,761.73,453.21Z"/><path class="cls-2" d="M576.79,177.48l-.86,7.66,2.59.81-6,7.46c6.15-.82,11.13-1.23,16-2.21A16.35,16.35,0,0,0,599,183.73c.67-1-.53-3.26-1.44-4.67-1.1-1.7-3.08-3-4.19-4.66-3.1-4.72-5.94-9.56-8.79-14.21l2.33-4.21c-2.86-.5-6.15-.5-6.37-1.21-.81-2.6-1.95-4.84-4.89-2.53-2,1.54-2.45,4.62-3.27,7.08-.57,1.7-.58,3.54-1,6.56L583.43,175Z"/><path class="cls-2" d="M989.33,389.27l-.22-.2.08.11Z"/><path class="cls-2" d="M959.91,379.13a48.79,48.79,0,0,1,6.09,3.28c4.07,3,10.22,5.74,11.44,9.54,3.36,10.44,12.33,17.18,19.44,25.15,1.2,1.35,4.66,2.54,6.2,2s2.47-3.24,3.2-5.13c1-2.61,1.58-5.35,2.35-8l2.25-.27-5.29-4.06c-1.9,1.33-3.8,3.29-4.47,3-1.6-.65-2.83-2.24-3.84-3.64-2.79-3.88-5.4-7.85-8.09-11.78-6.37-3.7-13-7.13-19-11.24C966.2,375.2,963.49,375,959.91,379.13Z"/><path class="cls-2" d="M787.72,87.29c-9.95-9.49-9.78-13,3.11-20.54,7.31-4.29,15.73-7.18,23.69-10.64,2.2-1,4.54-1.71,7.31-2.74-3.69-3.91-7-4.1-11.07-1.94a27.36,27.36,0,0,1-7.48,3c-11.07,2.15-22,3.46-28.57,13.53-4.21,6.47-8.92,11.43-1.52,18.51C777.08,90.25,783,91.25,787.72,87.29Z"/><path class="cls-2" d="M189.52,82.48c4.75-2.5,10.12-4.11,15.05-6.37.34-.16.68-.33,1-.51,3.22-1.76,3.5-5.72.46-7.7a9.81,9.81,0,0,0-1.49-.81A102,102,0,0,0,193,63.38a6.36,6.36,0,0,0-3.77.07c-.74.25-1.57.53-2.39.85-1.76.67-4.13,1.05-5.08,2.24-2.53,3.16-4.72,6.51-7.05,10a4.14,4.14,0,0,0,.38,5.18C179.09,86.18,182.6,86.11,189.52,82.48Z"/><path class="cls-2" d="M651.67,59.1c-1.78,6.81,2.2,12.57,9.4,13.89,1.61-3.92.29-9.76,8.37-10.28L671,68.16a58,58,0,0,0,7.59-.09c1.53-.21,3.83-1.08,4.1-2,.32-1.12-.72-3.2-1.92-3.84-2.56-1.37-5.79-1.82-8.39-3.15a44.05,44.05,0,0,1-6.75-4.82C663.7,52.79,662,50,660.1,50c-2.21,0-4.47,2.25-7.73,4.11l-11.24-2.87c-5.21,1.14-2.75,5.5-1.14,8.37C643.38,65.6,647.64,59.29,651.67,59.1Z"/><path class="cls-2" d="M1106.83,252.59l-14.74,6.93,8.8,4.52,8.18-1.35.38-2.74c4.63,0,9.28,1.14,12.3-.27,4.45-2.07,7.32-5.85,5.26-11.19-.69-1.8,1.37-4.38,2.25-6.83-1-2.29-2.2-5.31-3.79-8.16-.58-1-2.25-2.41-3.27-2.32a4.8,4.8,0,0,0-3.22,2.57c-.52,1.22.07,2.77.08,4.18,0,8.87-1.66,10.83-9.66,10.8l-1.57,5.05Z"/><path class="cls-2" d="M517.24,121.2c3-1,6.15-2.36,9.49-3.3,4.91-1.38,7.75-6.2,6-10.85-1.8-4.83-5.65-2.51-9.27-2.14-5.7.59-11.49.71-17.24.77-1.94,0-5.06-1.6-5.61-1-2,2.05-3.08,4.72-5.25,8.39l9.39-1.47-1.43,5.88Z"/><path class="cls-2" d="M287.18,53.87c4.27,7.79,13.52,11.23,23.46,10,4.86-.59,10,.55,15,.89,1.32.09,3.38.59,3.81.09.85-1,1.61-3.11,1-3.77-1.59-1.66-3.79-3.59-6.05-3.92-3.9-.57-8.07.36-12,0-5.29-.5-11.22-.58-11.95-7.21-.13-1.18-2.8-2.16-4.77-3.57-3.08,1.3-5.94,2.19-8.28,3.68C286.59,50.56,286.59,52.81,287.18,53.87Z"/><path class="cls-2" d="M292.05,33c.76.5,2.27,1,2.27,1.42,0,7.07,6.39,7.52,11.29,6.37,2.6-.61,4.61-3,7.22-5.87a4.09,4.09,0,0,0-.44-6.06,104.3,104.3,0,0,0-9.51-7.52c-1.63-1.08-6-1.63-6.63-.9-2.71,3.3-7.74,6.9-6.53,10.85C290.2,32.86,291.21,32.46,292.05,33Z"/><path class="cls-2" d="M1204.46,536c-3.82,6.91-10,11.27-18.28,13.86-2.34.73-4.91,2.12-6.17,3.85a6.4,6.4,0,0,0-.62,6c1.12,2.17,3.74,3.78,6.62,6.47,3.23-3.41,5.75-5.95,8.1-8.59,1.51-1.7,2.45-4.84,4.18-5.15,7.62-1.36,7.67-8.69,13.17-11.62.39-.21-.78-3.59-2.11-4.76C1208.51,535.26,1204.79,535.4,1204.46,536Z"/><path class="cls-2" d="M1067.77,391.85c-3.91-.23-6.7-.56-7.55,4-.59,3.18-3.56,6-4.66,9.17a10.94,10.94,0,0,0-.15,7.43c1,2.27,3.67,4,5.61,5.95l3.12-5.91,7,7.15,3-1.69a74,74,0,0,1-3.47-7.18,10.31,10.31,0,0,1-.61-5.23c.33-1.75,1.57-3.38,2.41-5.07l-7.21.33-1.32-4.34c6.11-.94,11.29-1.72,16.42-2.72.08,0-.56-2.75-.55-2.68C1074.84,391.41,1071.27,392.06,1067.77,391.85Z"/><path class="cls-2" d="M219.54,65.21c4.12.24,8.34-.55,12.49-1.09s8.42-1.16,13.32-1.88c2.76-.4,3.79-3.32,1.78-5-.66-.54-1.34-1.08-2-1.6-1.65-1.24-4.3-1.81-5.33-3.28-2.86-4.06-4.66-2.68-7.92-.15s-7.57,3.71-11.35,5.59c-.91.45-1.78,1-2.64,1.49a2.67,2.67,0,0,0-.8,4.07C217.86,64.35,218.67,65.16,219.54,65.21Z"/><path class="cls-2" d="M386,192.8c-2,1.67-4.65,3.06-5.87,5.09-1.41,2.32-1.58,5.2-2.28,7.84,2.36.12,4.73.3,7.09.34a25.47,25.47,0,0,0,3.29-.34l2.93,5.72,2.88-2.83,5,3.46c3.77-6.63,1.39-13.13-4.67-15.55a4.22,4.22,0,0,1-2.36-2.47C391.1,189.52,388.81,190.5,386,192.8Z"/><path class="cls-2" d="M1231.71,522.48c-11.06,1.28-7.59-10.84-16.76-13.17.5,2.67.25,4.5,1.16,5.64,3.82,4.77,4,8.69-.91,13.39-3.34,3.21.22,10.72,2.76,11.53,4-3.25,7.52-5.65,10.39-8.51,2.15-2.13,3.5-4.85,5.2-7.31Z"/><path class="cls-2" d="M1029.72,421.89c-6.7-.64-13.27-2.41-20-2.86-1.82-.12-3.92,2.76-5.89,4.26a48.94,48.94,0,0,0,6.14,3c1.68.57,3.69.4,5.5.75,8.27,1.6,16.35,5,25.47,1.61C1039.34,423.25,1035,422.39,1029.72,421.89Z"/><path class="cls-2" d="M555.86,187.24c4-1.21,7.35-2.84,10.84-3.14,9.35-.79,2.2-7.38,5.24-10.41.69-.69-.33-2.76-.82-4.12-.15-.43-1.08-.76-1.73-.94-2.85-.79-14.19,4-14.32,6.41C554.86,178.88,555.52,182.77,555.86,187.24Z"/><path class="cls-2" d="M306.6,318.39a167,167,0,0,0-16-6.58c-9.68-3.43-14.86-2.64-19.89,3.08,2.09-.46,3.58-.85,5.09-1.12,9.45-1.68,17.25,2.16,21.1,9.65.68,1.31,4.3,2.26,6.41,2.09,2.55-.21,5-1.8,7.42-2.79C309.39,321.24,308.37,319.23,306.6,318.39Z"/><path class="cls-2" d="M260.8,82.33c.23.64,5.12,1.11,6.17.21A11.53,11.53,0,0,0,270.23,76a9.41,9.41,0,0,0-.92-6.26c-1-1.63-3.44-3.7-5.11-3.61-1.83.1-4,2.22-5.06,3.89-.7,1.07.27,2.94.61,5.22L253,72.23C250.38,79,259.39,78.45,260.8,82.33Z"/><path class="cls-2" d="M1120,227.62c3,.44,6.18.13,9.91.13.71-.7,3-2,3.52-3.73s.14-4.66-1.25-5.7c-3.81-2.87-8.36-5-11.88-7-1.11,3.62-2.81,8.54-3.93,13.55C1116.19,225.57,1118.57,227.41,1120,227.62Z"/><path class="cls-2" d="M1063.91,323.89a7.89,7.89,0,0,0-4.57,3,26.72,26.72,0,0,0-4.2,8.13c-.41,1.52.58,4.43,1.9,5,3.34,1.36,7.24,1.72,11.89,2.69-.71-6.79-.94-11.2-1.77-15.53C1066.94,325.86,1064.76,323.74,1063.91,323.89Z"/><path class="cls-2" d="M672.79,55.66c6.69,3.05,15.85-.38,20.26-7.24-6.35-.49-12-1.22-17.75-1.24-2.59,0-5.18,1.4-7.77,2.16C669.25,51.51,670.41,54.57,672.79,55.66Z"/><path class="cls-2" d="M1042.17,72.36c6.83.21,13.71-.6,20.56-1.08.15,0,.23-.7.52-1.62-5.17.57-6.2-11.86-14.06-2.44a23.54,23.54,0,0,0-2.56-1.19,42.24,42.24,0,0,0-7.34-2.07c-.54-.07-2.47,2.58-2.08,3.23C1038.42,69.19,1040.38,72.3,1042.17,72.36Z"/><path class="cls-2" d="M206.88,54.94c2-1.14,4.07-2.21,6.15-3.25,1.4-.7,3.67-1,4.12-2,.58-1.24.31-3.57-.71-4.33s-3.5-.28-5.1.22a123.77,123.77,0,0,0-12.92,4.68,11.12,11.12,0,0,0-1.47.8,3.69,3.69,0,0,0-.12,6.35h0a5.34,5.34,0,0,0,5.69.14C204.08,56.59,205.47,55.75,206.88,54.94Z"/><path class="cls-2" d="M266.72,51.57a7.77,7.77,0,0,0-2.81.77,6.46,6.46,0,0,1-5,.13c-1.43-.57-2.8-1.08-4.2-1.5-.19-.06-1.76,2-1.49,2.3,2.35,2.91,4.38,6.9,7.71,8.08,2.92,1,7.68-.65,11-2.14,1.24-.55,1.53-4.27.7-6C272.16,52.11,268.78,51.49,266.72,51.57Z"/><path class="cls-2" d="M1114.57,175.49c-.91-1.21-2.58-2-3.91-3l-1.78,1,7.4,24.49,7.93-1.49c-1.59-4.42-3-8.91-4.85-13.25A39.69,39.69,0,0,0,1114.57,175.49Z"/><path class="cls-2" d="M335.48,327.68c-6.27-2.38-11.64-4.51-17.17-6.24-.29-.09-2,3.2-3.34,5.35l-6.66.57C312.14,331.51,329,332,335.48,327.68Z"/><path class="cls-2" d="M1142.92,559.62c-7.12.95-8.73,2-8.86,6.73-.09,3.26.67,6.13,5.6,6.17,4.25,0,9.93-4.55,9.38-8.7C1148.84,562.24,1145.07,561,1142.92,559.62Z"/><path class="cls-2" d="M292.93,68c-11.62-3.83-16.48-1.05-17.34,10.17-.08,1.07,1.32,1.75,2.35,1.14l15.31-9A1.21,1.21,0,0,0,292.93,68Z"/><path class="cls-2" d="M900.06,35.18c4.44-1.75,4.43-4.4,2-6.66-1.48-1.4-5.24-2.19-7.41-1.64-3.43.88-6.39,3.12-9.92,5C889.14,38.87,890.47,39,900.06,35.18Z"/><path class="cls-2" d="M255.73,40.82a20.81,20.81,0,0,0,7.21,4.07,12.66,12.66,0,0,0,4.78,0,2.73,2.73,0,0,0,2.57-2.59c0-1.23-.12-2.4-.85-3a65.89,65.89,0,0,0-9.13-5.61,3.44,3.44,0,0,0-3.26,0c-2,1.06-3.63,1.77-3.86,2.73C252.88,37.72,254.36,39.72,255.73,40.82Z"/><path class="cls-2" d="M1076.28,362.88c-7.85,6.79,3.57,8.11,3.91,13.07,7.45-5.69,8.73-10.83,4.39-14.54C1081,358.34,1078.53,360.94,1076.28,362.88Z"/><path class="cls-2" d="M296.31,119.1a7.09,7.09,0,0,0-2.49,5.72c.11,1.74,1.77,3.77,3.45,4.89.63.42,3.31-1.3,5-2.17,2.54-1.34,5-2.79,7.49-4.18C307.25,118.42,300.64,116.12,296.31,119.1Z"/><path class="cls-2" d="M915.27,43.31c-5.59-10.8-5.59-10.8-19-3.06C902.81,42.93,908.26,46.14,915.27,43.31Z"/><path class="cls-2" d="M931.14,38.43c3.17-7.42-7-3.63-8.12-7.64l-3.23.37c-.43,3-2.34,6.74-.94,8.88C920.68,42.86,929.84,41.48,931.14,38.43Z"/><path class="cls-2" d="M902.25,359.75c0,4.94-.3,8.9.13,12.8.1.91,2.7,2.31,4,2.23s3.67-1.5,3.93-2.61C911.46,367.32,910.53,362.95,902.25,359.75Z"/><path class="cls-2" d="M346.52,620.31l.09-.09h0l-.14.1h0Z"/><path class="cls-2" d="M348.69,627.81c5.34,3.57,8.49-2.11,13.19-1.48-5.31-1.91-7-9.87-15.35-6C343.23,623.63,345,625.37,348.69,627.81Z"/><path class="cls-2" d="M282.29,35.91c-1.94.2-4.93,2.91-4.9,4.49s3,4.28,5,4.53c1.47.19,3.27-1.55,5.88-3.43a1.27,1.27,0,0,0,0-2.12C285.6,37.49,283.81,35.75,282.29,35.91Z"/><path class="cls-2" d="M375.21,609.92c-.94.13-1.26,3.52-2.07,6.06l15.52-3.47-.42-2.85C383.88,609.66,379.46,609.33,375.21,609.92Z"/><path class="cls-2" d="M1085.5,267.21c-.6.64,0,2.12.05,3.22,5.51-1.94,3.07,4.64,8.82,4.64l-1.2-14C1089.35,264,1087.17,265.45,1085.5,267.21Z"/><path class="cls-2" d="M1061.52,311.38l-1.62-13.21C1052,304.79,1052.43,308.61,1061.52,311.38Z"/><path class="cls-2" d="M240.47,36.72V36.5a.58.58,0,0,0-.48-.55c-2.42-.62-5.07-1.86-7.08-1.33-2.53.67-4.54,2.8-6.73,4.42a.51.51,0,0,0-.13.73c0,.07,2,.75,3.43,1.26a4.93,4.93,0,0,0,3.13.05C237.36,39.56,233.84,38.29,240.47,36.72Z"/><path class="cls-2" d="M263.44,90.52c-5.34-1-6.39,2.49-7.33,8.24l11.61-3.54C266.31,93.58,265.18,90.84,263.44,90.52Z"/><path class="cls-2" d="M1084.85,70.93l.51-2.38L1069,67.36C1073.09,73,1076.91,73.73,1084.85,70.93Z"/><path class="cls-2" d="M1093.77,398.35v-13C1085.47,395.3,1086,395.54,1093.77,398.35Z"/><path class="cls-2" d="M1018.64,319.65l-2.94-.36-4.57,8.93,2.88,2.05c1.79-1.45,4.38-2.65,5.16-4.43S1018.89,321.75,1018.64,319.65Z"/><path class="cls-2" d="M1051.45,367.85l8-13.85-2.34-.95C1049.34,363.12,1049.34,363.12,1051.45,367.85Z"/><path class="cls-2" d="M227.3,50.15,239,44.43l-1.54-1.74C226.78,42.63,226.63,42.72,227.3,50.15Z"/><path class="cls-2" d="M1210,82.88c-.95-1.19-1.7-3.24-2.87-3.42-4.62-.74-7.48,1.17-7.1,7Z"/><path class="cls-2" d="M1173,417.94l.84,2.44c2.83-.55,6.09-.55,8.36-1.84,1.63-.92,1.93-3.56,2.83-5.43l-1.8-.8Z"/><path class="cls-2" d="M1115.8,406.35l11.6-4C1118.12,398.19,1117.31,398.49,1115.8,406.35Z"/><path class="cls-2" d="M279.27,62.63l4.37-.74a1.7,1.7,0,0,0,1.53-2.06,8,8,0,0,0-.71-2c-2.08.29-4.13.77-6.18,1.25a1.68,1.68,0,0,0-1.39,2l.08.29A2,2,0,0,0,279.27,62.63Z"/><path class="cls-2" d="M1189.83,405.31c-1.12-1.58-3.93-2.27-6-3.36l-1.24,1.45,5.76,8.51,2.25-.44C1190.41,409.38,1191,406.91,1189.83,405.31Z"/><path class="cls-2" d="M43.2,166.28c.58.67,2.6,1.37,2.84,1.14a29.5,29.5,0,0,0,2.54-2.71,2.11,2.11,0,0,0-1-3.37l0,0a2.94,2.94,0,0,0-3.27.72,8.89,8.89,0,0,0-1.15,1.63A2.68,2.68,0,0,0,43.2,166.28Z"/><path class="cls-2" d="M282.25,28.92l-2.81-2.64a1.1,1.1,0,0,0-1.46,0c-1.39,1.37-2.68,2.3-2.7,3.24s1.16,1.82,2.12,2.74a1.1,1.1,0,0,0,1.32.1l3.4-2.22A.76.76,0,0,0,282.25,28.92Z"/><path class="cls-2" d="M1155.63,470.69c-1.13-.91-1.32-2.67-2-4q-6.88-13.17-13.85-26.31c-.1-.18-1.06,0-1.62,0-1.4,8.26-2.8,16.53-4.29,25.35-17.19-7.72-19-10.48-15-23.63-7.27.75-14.21.44-20.07,2.44-3.81,1.3-6.07,6-9.34,9.46l-7.77-5.22c-5.82,6.3-11.36,12.4-17.06,18.39-1.8,1.89-3.73,4-6.15,5.11-4.08,1.9-8.77,2.82-12.88,4.66-6.56,2.94-12.92,6.82-12.4,13.87.46,6.17,3.12,12.21,4.47,18.36,1.3,5.91,2.16,11.88,3.23,17.83.39,2.18.08,5.76,1.35,6.24,2.79,1.05,6.48,1,9.65.55a116,116,0,0,0,13.35-3.08c2.44-.64,5.13-1.16,7.1-2.43,15.59-10,30.23-8.48,41.85,4.65l6.59-3.45c-.17,2.5-1.09,4.59-.25,5.73,2.76,3.76,6.72,6.91,9.17,10.79,3.47,5.49,12.17,8,18.33,4.68l5.18,3.38,10.37-6.19c4.5-8.35,9.14-15.58,12.28-23.25,2.17-5.31,3.85-11.42,3-16.86C1176.52,493.13,1168.23,480.83,1155.63,470.69Z"/></g></g></g></svg>