<svg xmlns="http://www.w3.org/2000/svg" viewBox="0 0 112.84 112.84"><defs><style>.cls-1{fill:#2a8f91;}</style></defs><title>Asset 53</title><g id="Layer_2" data-name="Layer 2"><g id="Layer_27" data-name="Layer 27"><path class="cls-1" d="M56.3,0a56.42,56.42,0,1,0,56.54,56.3A56.48,56.48,0,0,0,56.3,0ZM30.48,70.59a2.68,2.68,0,0,1,3.79.2,29.89,29.89,0,0,0,44.36-.09,2.68,2.68,0,1,1,4,3.57,35.26,35.26,0,0,1-52.36.12A2.69,2.69,0,0,1,30.48,70.59ZM43.12,46.13c0,6.56-3,11.87-6.65,11.88s-6.69-5.3-6.7-11.85,3-11.87,6.65-11.88S43.1,39.58,43.12,46.13Zm40-.08c0,6.55-3,11.87-6.65,11.87s-6.69-5.29-6.7-11.84,3-11.87,6.65-11.88S83.14,39.5,83.16,46.05Z"/></g></g></svg>