<svg xmlns="http://www.w3.org/2000/svg" viewBox="0 0 112.23 112.23"><defs><style>.cls-1{fill:#fba432;}</style></defs><title>Asset 52</title><g id="Layer_2" data-name="Layer 2"><g id="Layer_27" data-name="Layer 27"><path class="cls-1" d="M56,0a56.12,56.12,0,1,0,56.23,56A56.18,56.18,0,0,0,56,0ZM42.89,45.89c0,6.51-3,11.8-6.61,11.81s-6.65-5.27-6.67-11.78,3-11.81,6.61-11.82S42.87,39.37,42.89,45.89Zm39.82-.09c0,6.52-2.94,11.81-6.61,11.82s-6.65-5.27-6.66-11.79S72.38,34,76.05,34,82.7,39.28,82.71,45.8Zm-1.93,31-49.1.11a2,2,0,0,1-2-2V73a2,2,0,0,1,2-2l49.1-.11a2,2,0,0,1,2,2v1.9A2,2,0,0,1,80.78,76.78Z"/></g></g></svg>