<svg xmlns="http://www.w3.org/2000/svg" viewBox="0 0 112.23 112.23"><defs><style>.cls-1{fill:#5cce9c;}</style></defs><title>Asset 54</title><g id="Layer_2" data-name="Layer 2"><g id="Layer_27" data-name="Layer 27"><path class="cls-1" d="M56,0a56.12,56.12,0,1,0,56.23,56A56.18,56.18,0,0,0,56,0ZM30.32,70.22a2.64,2.64,0,0,1,1.78-.69,2.67,2.67,0,0,1,2,.89,29.73,29.73,0,0,0,44.12-.1,2.67,2.67,0,1,1,4,3.56A35.08,35.08,0,0,1,30.12,74,2.66,2.66,0,0,1,30.32,70.22ZM48.76,51.78a1.5,1.5,0,0,1-1.46-1.54c0-6.81-4.17-12.33-9.25-12.32s-9.22,5.55-9.2,12.36a1.46,1.46,0,1,1-2.92,0c0-8.5,5.42-15.43,12.11-15.44s12.15,6.89,12.17,15.39A1.51,1.51,0,0,1,48.76,51.78Zm36.93-.08a1.51,1.51,0,0,1-1.46-1.54c0-6.81-4.16-12.33-9.25-12.32s-9.21,5.55-9.2,12.36a1.49,1.49,0,0,1-1.45,1.54,1.51,1.51,0,0,1-1.46-1.54c0-8.5,5.41-15.43,12.11-15.44s12.15,6.89,12.17,15.39A1.51,1.51,0,0,1,85.69,51.7Z"/></g></g></svg>