<svg xmlns="http://www.w3.org/2000/svg" xmlns:xlink="http://www.w3.org/1999/xlink" viewBox="0 0 39.86 51.26"><defs><style>.cls-1{clip-path:url(#clip-path);}</style><clipPath id="clip-path"><rect x="13.63" y="3.56" width="11.51" height="6.01" rx="1.47" ry="1.47"/></clipPath></defs><title>Asset 56</title><g id="Layer_2" data-name="Layer 2"><g id="Layer_31" data-name="Layer 31"><path d="M19.93,51.26A19.93,19.93,0,1,1,39.86,31.33,20,20,0,0,1,19.93,51.26Zm0-34.85A14.92,14.92,0,1,0,34.85,31.33,14.93,14.93,0,0,0,19.93,16.41Z"/><rect x="13.63" y="3.56" width="11.51" height="6.01" rx="1.47" ry="1.47"/><g class="cls-1"><rect x="18.86" width="7.32" height="7.32"/><rect x="18.86" width="7.32" height="7.32"/><rect x="18.86" y="7.32" width="7.32" height="7.32"/><rect x="18.86" y="7.32" width="7.32" height="7.32"/><rect x="11.54" width="7.32" height="7.32"/><rect x="11.54" width="7.32" height="7.32"/><rect x="11.54" y="7.32" width="7.32" height="7.32"/><rect x="11.54" y="7.32" width="7.32" height="7.32"/></g><path d="M30.68,36.27H17.2V19.65a2.51,2.51,0,0,1,5,0V31.26h8.47a2.51,2.51,0,1,1,0,5Z"/></g></g></svg>