<svg xmlns="http://www.w3.org/2000/svg" viewBox="0 0 69.1 63.67"><title>Asset 58</title><g id="Layer_2" data-name="Layer 2"><g id="Layer_31" data-name="Layer 31"><path d="M68.85,50.38,63.16,31.46a5.92,5.92,0,0,0-7.36-4l-4.2,1.26a5.94,5.94,0,0,0,.89-3.39L51.57,5.63A5.9,5.9,0,0,0,45.4,0L25.66.92A5.9,5.9,0,0,0,20,7.09L21,26.83A6,6,0,0,0,21.13,28L8.57,26.72A5.92,5.92,0,0,0,2.08,32L0,51.64A5.89,5.89,0,0,0,1.32,56a5.81,5.81,0,0,0,4,2.15L25,60.18c.2,0,.41,0,.62,0a5.9,5.9,0,0,0,5.86-5.3l1.5-14.35,5.68,18.9a5.93,5.93,0,0,0,5.65,4.21A6,6,0,0,0,46,63.42l18.92-5.69a5.9,5.9,0,0,0,4-7.35ZM27.29,7.79a2.87,2.87,0,0,1,2-.94l6-.28a2,2,0,1,1,.2,4l-4.79.23.23,4.73A2,2,0,0,1,29,17.69h-.1a2,2,0,0,1-2-1.93l-.28-5.9a2.82,2.82,0,0,1,.74-2.07ZM19,36.2A2,2,0,0,1,16.82,38l-4.77-.48-.48,4.7a2,2,0,0,1-2,1.82H9.35a2,2,0,0,1-1.81-2.22l.59-5.88a2.84,2.84,0,0,1,1-1.93,2.81,2.81,0,0,1,2.1-.63l6,.6A2,2,0,0,1,19,36.2Zm17.84-3A5.87,5.87,0,0,0,33.41,36l.07-.74a5.84,5.84,0,0,0-.5-3.07l8.54-.4Zm12.18,7.31-4.59,1.39,1.36,4.52a2,2,0,0,1-1.35,2.53,2,2,0,0,1-.59.09A2,2,0,0,1,42,47.57l-1.71-5.65a2.83,2.83,0,0,1,.22-2.19,2.81,2.81,0,0,1,1.7-1.39l5.72-1.73a2,2,0,0,1,1.17,3.88Z"/></g></g></svg>