<svg xmlns="http://www.w3.org/2000/svg" viewBox="0 0 43.7 43.74"><title>Asset 54</title><g id="Layer_2" data-name="Layer 2"><g id="Layer_31" data-name="Layer 31"><path d="M40.32,19.69A11.54,11.54,0,0,0,24,3.37l-9.52,9.51,10.8,10.8a12.63,12.63,0,0,1,13.18-2Z"/><path d="M19.77,40.41l1.89-1.89a12.81,12.81,0,0,1-1-5,12.68,12.68,0,0,1,2.87-8L12.68,14.7,3.37,24a11.6,11.6,0,0,0,16.4,16.4Z"/><path d="M32.16,43.61V23.36a10.2,10.2,0,0,0,0,20.25Z"/><path d="M34.73,23.36V43.61a10.2,10.2,0,0,0,0-20.25Z"/></g></g></svg>