<svg xmlns="http://www.w3.org/2000/svg" viewBox="0 0 49.55 49.55"><title>Asset 53</title><g id="Layer_2" data-name="Layer 2"><g id="Layer_31" data-name="Layer 31"><path d="M24.78,0A24.78,24.78,0,1,0,49.55,24.78,24.8,24.8,0,0,0,24.78,0Zm5,5.61c-1.07.85-2.63,2.16-1.43,3.59.58.69,1.27,1.24,1.8,2s-.59,1.22-1,.6c-.79-1.11-2.34-1.95-2.41-3.45s1.11-2.68,2.23-3.58C29.49,4.28,30.34,5.13,29.74,5.61ZM27.6,13.48c-.86-1.06-2.17-2.62-3.6-1.42-.69.58-1.24,1.26-2,1.8s-1.23-.59-.61-1c1.12-.79,2-2.34,3.46-2.41s2.67,1.1,3.57,2.23C28.92,13.23,28.08,14.09,27.6,13.48ZM22,3.69c.85,1.06,2.16,2.62,3.59,1.42.69-.58,1.24-1.26,2-1.79s1.23.59.6,1c-1.11.79-2,2.34-3.45,2.41S22,5.66,21.14,4.53C20.66,3.94,21.51,3.09,22,3.69ZM20.51,5.38c.8,1.11,2.34,2,2.41,3.45s-1.1,2.68-2.23,3.58c-.59.48-1.44-.36-.84-.85,1.07-.85,2.63-2.16,1.42-3.59-.58-.69-1.26-1.24-1.79-2S20.07,4.76,20.51,5.38ZM10.62,26a1.18,1.18,0,0,1-.53-2.23l7.33-3.66-7.33-3.67a1.18,1.18,0,1,1,1.06-2.11L20.58,19a1.17,1.17,0,0,1,0,2.11l-9.43,4.72A1.24,1.24,0,0,1,10.62,26Zm25.56,11.5a1.19,1.19,0,0,1-1.67-.09,13.11,13.11,0,0,0-19.47,0,1.18,1.18,0,0,1-1.67.09,1.17,1.17,0,0,1-.09-1.66,15.46,15.46,0,0,1,23,0A1.16,1.16,0,0,1,36.18,37.45ZM40,25.3a1.18,1.18,0,0,1-1.06.65,1.24,1.24,0,0,1-.53-.12L29,21.11A1.17,1.17,0,0,1,29,19l9.43-4.72a1.18,1.18,0,1,1,1.06,2.11l-7.33,3.67,7.33,3.66A1.18,1.18,0,0,1,40,25.3Z"/></g></g></svg>