<svg xmlns="http://www.w3.org/2000/svg" viewBox="0 0 39.89 48.6"><title>Asset 52</title><g id="Layer_2" data-name="Layer 2"><g id="Layer_31" data-name="Layer 31"><path d="M39.72,24a3.4,3.4,0,0,0-1.22-2.15,1.91,1.91,0,0,0-1.64-.39,5,5,0,0,0-.5.18.45.45,0,0,1,0-.23,24,24,0,0,0,.44-8.15,13.21,13.21,0,0,0-2.35-6.11A15.13,15.13,0,0,0,30.29,3.4,20.33,20.33,0,0,0,21,.06a12.23,12.23,0,0,0-3.47.15,22.41,22.41,0,0,0-8.9,3.87,12.88,12.88,0,0,0-5.26,7.73,21.43,21.43,0,0,0-.12,8.1c.1.59.22,1.17.33,1.78l-.13-.05a1.81,1.81,0,0,0-1.9.15A2.87,2.87,0,0,0,.41,23.21,8,8,0,0,0,0,25.47a8.13,8.13,0,0,0,.76,3.74,10.8,10.8,0,0,0,2.94,4.28,5.5,5.5,0,0,0,2.52,1.22c.37.08.51.2.6.52C9,44.05,16.12,48.6,20.19,48.6c3.25,0,8.72-3.72,11.22-8.91A26.66,26.66,0,0,0,33.13,35a.34.34,0,0,1,.31-.28,5.67,5.67,0,0,0,2.77-1.28,9.76,9.76,0,0,0,2.33-3A9.31,9.31,0,0,0,39.72,24Z"/></g></g></svg>