<svg xmlns="http://www.w3.org/2000/svg" xmlns:xlink="http://www.w3.org/1999/xlink" viewBox="0 0 62.5 63.63"><defs><style>.cls-1{clip-path:url(#clip-path);}.cls-2{clip-path:url(#clip-path-2);}.cls-3{clip-path:url(#clip-path-3);}.cls-4{clip-path:url(#clip-path-4);}.cls-5{clip-path:url(#clip-path-5);}.cls-6{clip-path:url(#clip-path-6);}.cls-7{clip-path:url(#clip-path-7);}.cls-8{clip-path:url(#clip-path-8);}</style><clipPath id="clip-path"><path d="M3.41,54.54H24.66L14.43,47.72h-11a3.41,3.41,0,0,0,0,6.82Z"/></clipPath><clipPath id="clip-path-2"><path d="M37.41,47.72H18.53l9.85,6.57Z"/></clipPath><clipPath id="clip-path-3"><path d="M14.77,45.45H43.14A14.79,14.79,0,0,0,28.41,31.82H14.77A14.79,14.79,0,0,0,0,45.45Zm15.91-6.82H33v2.28H30.68Zm-3.41-4.54h2.27v2.27H27.27Zm-3.41,4.54h2.27v2.28H23.86Zm-3.41-4.54h2.28v2.27H20.45ZM17,38.63h2.28v2.28H17Zm-3.4-4.54h2.27v2.27H13.64Zm-3.41,4.54H12.5v2.28H10.23Z"/></clipPath><clipPath id="clip-path-4"><path d="M3.41,56.81H0v3.41a3.41,3.41,0,0,0,3.41,3.41H39.77a3.41,3.41,0,0,0,3.41-3.41V56.81Z"/></clipPath><clipPath id="clip-path-5"><path d="M34.92,30.85a16.89,16.89,0,0,1,3.18,1.73l-.27-4.1,2.27-.15.42,6.27a17,17,0,0,1,4.93,12,1.13,1.13,0,0,1-1.14,1.13h0a5.58,5.58,0,0,1,0,6.82h0a1.14,1.14,0,0,1,1.14,1.14v4.54a5.6,5.6,0,0,1-1.16,3.41H55.76L59,20.45H34.18Zm4.85-7.07.16,2.27-2.26.16-.17-2.27Z"/></clipPath><clipPath id="clip-path-6"><path d="M48.86,14.77H30.68v3.41H62.5V14.77Z"/></clipPath><clipPath id="clip-path-7"><rect x="45.45" width="2.27" height="12.5"/></clipPath><clipPath id="clip-path-8"><path d="M41,48,31.9,54.54h7.87A3.4,3.4,0,0,0,41,48Z"/></clipPath></defs><title>Asset 55</title><g id="Layer_2" data-name="Layer 2"><g id="Layer_31" data-name="Layer 31"><path d="M3.41,54.54H24.66L14.43,47.72h-11a3.41,3.41,0,0,0,0,6.82Z"/><g class="cls-1"><path d="M0,47.72v0Z"/><rect y="47.72" width="24.66" height="6.82"/><path d="M24.66,54.54v0Z"/></g><path d="M37.41,47.72H18.53l9.85,6.57Z"/><g class="cls-2"><path d="M18.53,47.72v0Z"/><rect x="18.53" y="47.72" width="18.89" height="6.57"/><path d="M37.41,54.29v0Z"/></g><path d="M14.77,45.45H43.14A14.79,14.79,0,0,0,28.41,31.82H14.77A14.79,14.79,0,0,0,0,45.45Zm15.91-6.82H33v2.28H30.68Zm-3.41-4.54h2.27v2.27H27.27Zm-3.41,4.54h2.27v2.28H23.86Zm-3.41-4.54h2.28v2.27H20.45ZM17,38.63h2.28v2.28H17Zm-3.4-4.54h2.27v2.27H13.64Zm-3.41,4.54H12.5v2.28H10.23Z"/><g class="cls-3"><rect x="10.23" y="38.63" width="2.27" height="2.27"/><rect x="13.64" y="34.09" width="2.27" height="2.27"/><rect x="17.04" y="38.63" width="2.27" height="2.27"/><rect x="20.45" y="34.09" width="2.27" height="2.27"/><rect x="23.86" y="38.63" width="2.27" height="2.27"/><rect x="27.27" y="34.09" width="2.27" height="2.27"/><rect x="30.68" y="38.63" width="2.27" height="2.27"/><path d="M0,31.82v0Z"/><rect x="0.04" y="31.82" width="43.09" height="13.64"/><path d="M43.14,45.45v0Z"/></g><path d="M3.41,56.81H0v3.41a3.41,3.41,0,0,0,3.41,3.41H39.77a3.41,3.41,0,0,0,3.41-3.41V56.81Z"/><g class="cls-4"><path d="M0,56.81v0Z"/><rect y="56.81" width="43.18" height="6.82"/><path d="M43.18,63.63v0Z"/></g><path d="M34.92,30.85a16.89,16.89,0,0,1,3.18,1.73l-.27-4.1,2.27-.15.42,6.27a17,17,0,0,1,4.93,12,1.13,1.13,0,0,1-1.14,1.13h0a5.58,5.58,0,0,1,0,6.82h0a1.14,1.14,0,0,1,1.14,1.14v4.54a5.6,5.6,0,0,1-1.16,3.41H55.76L59,20.45H34.18Zm4.85-7.07.16,2.27-2.26.16-.17-2.27Z"/><g class="cls-5"><rect x="37.5" y="23.78" width="2.43" height="2.43"/><path d="M34.18,20.45v0Z"/><rect x="34.18" y="20.45" width="24.82" height="43.18"/><path d="M59,63.63v0Z"/></g><path d="M48.86,14.77H30.68v3.41H62.5V14.77Z"/><g class="cls-6"><path d="M30.68,14.77v0Z"/><rect x="30.68" y="14.77" width="31.82" height="3.41"/><path d="M62.5,18.18v0Z"/></g><rect x="45.45" width="2.27" height="12.5"/><g class="cls-7"><path d="M45.45,0V0Z"/><rect x="45.45" width="2.27" height="12.5"/><path d="M47.72,12.5v0Z"/></g><path d="M41,48,31.9,54.54h7.87A3.4,3.4,0,0,0,41,48Z"/><g class="cls-8"><rect x="31.9" y="47.95" width="11.28" height="6.59"/><rect x="43.18" y="47.95" width="0.24" height="6.59"/></g></g></g></svg>