<svg xmlns="http://www.w3.org/2000/svg" viewBox="0 0 137.18 137.18"><defs><style>.cls-1{fill:#1bc9b7;}</style></defs><title>Asset 19</title><g id="Layer_2" data-name="Layer 2"><g id="Layer_13" data-name="Layer 13"><path class="cls-1" d="M68.59,0a68.59,68.59,0,1,0,68.59,68.59A68.67,68.67,0,0,0,68.59,0ZM37,85.75a3.26,3.26,0,0,1,4.61.26,36.33,36.33,0,0,0,53.92,0,3.27,3.27,0,1,1,4.87,4.36,42.88,42.88,0,0,1-63.66,0A3.27,3.27,0,0,1,37,85.75ZM59.6,63.26a1.83,1.83,0,0,1-1.78-1.88c0-8.32-5-15.08-11.27-15.08S35.27,53.06,35.27,61.38a1.78,1.78,0,1,1-3.56,0c0-10.39,6.66-18.85,14.84-18.85S61.39,51,61.39,61.38A1.83,1.83,0,0,1,59.6,63.26Zm45.15,0A1.83,1.83,0,0,1,103,61.38c0-8.32-5.06-15.08-11.27-15.08S80.42,53.06,80.42,61.38a1.78,1.78,0,1,1-3.56,0c0-10.39,6.65-18.85,14.84-18.85S106.53,51,106.53,61.38A1.83,1.83,0,0,1,104.75,63.26Z"/></g></g></svg>