<svg xmlns="http://www.w3.org/2000/svg" viewBox="0 0 137.18 137.18"><defs><style>.cls-1{fill:#78afb3;}</style></defs><title>Asset 18</title><g id="Layer_2" data-name="Layer 2"><g id="Layer_13" data-name="Layer 13"><path class="cls-1" d="M68.59,0a68.59,68.59,0,1,0,68.59,68.59A68.67,68.67,0,0,0,68.59,0ZM37,85.75a3.26,3.26,0,0,1,4.61.26,36.33,36.33,0,0,0,53.92,0,3.27,3.27,0,1,1,4.87,4.36,42.88,42.88,0,0,1-63.66,0A3.27,3.27,0,0,1,37,85.75Zm15.43-29.7c0,8-3.64,14.42-8.12,14.42S36.22,64,36.22,56.05s3.63-14.42,8.11-14.42S52.45,48.09,52.45,56.05Zm48.67,0c0,8-3.63,14.42-8.11,14.42S84.9,64,84.9,56.05,88.53,41.63,93,41.63,101.12,48.09,101.12,56.05Z"/></g></g></svg>