<svg xmlns="http://www.w3.org/2000/svg" viewBox="0 0 137.18 137.18"><defs><style>.cls-1{fill:#f47a6e;}</style></defs><title>Asset 20</title><g id="Layer_2" data-name="Layer 2"><g id="Layer_13" data-name="Layer 13"><path class="cls-1" d="M68.59,0a68.59,68.59,0,1,0,68.59,68.59A68.67,68.67,0,0,0,68.59,0ZM82.33,15.52c-3,2.37-7.28,6-4,10,1.61,1.9,3.5,3.43,5,5.49,1.25,1.75-1.63,3.4-2.86,1.68-2.2-3.09-6.48-5.41-6.68-9.57-.21-4.35,3.06-7.41,6.17-9.9C81.63,11.86,84,14.19,82.33,15.52ZM76.4,37.33c-2.36-2.95-6-7.27-10-3.94-1.91,1.6-3.44,3.5-5.5,5-1.74,1.24-3.4-1.63-1.67-2.86,3.08-2.2,5.41-6.48,9.56-6.68,4.35-.21,7.41,3.06,9.91,6.17C80.07,36.64,77.74,39,76.4,37.33ZM60.87,10.21c2.37,2.95,6,7.27,10,3.94,1.9-1.6,3.43-3.5,5.5-5C78.07,7.94,79.72,10.81,78,12c-3.09,2.2-5.41,6.48-9.56,6.68-4.36.21-7.42-3.06-9.91-6.17C57.21,10.9,59.54,8.54,60.87,10.21Zm-4.09,4.68C59,18,63.26,20.3,63.46,24.46c.21,4.35-3.06,7.41-6.17,9.9-1.65,1.32-4-1-2.34-2.34,2.95-2.37,7.27-6,3.95-10-1.61-1.91-3.51-3.44-5-5.5C52.68,14.82,55.56,13.17,56.78,14.89Zm-27.38,57a3.27,3.27,0,0,1-1.46-6.19L48.22,55.52,27.93,45.38a3.27,3.27,0,1,1,2.93-5.84L57,52.6a3.28,3.28,0,0,1,0,5.85L30.86,71.51A3.2,3.2,0,0,1,29.4,71.86Zm70.76,31.82a3.24,3.24,0,0,1-2.17.84,3.28,3.28,0,0,1-2.44-1.09,36.33,36.33,0,0,0-53.92,0,3.27,3.27,0,0,1-4.87-4.36,42.88,42.88,0,0,1,63.66,0A3.26,3.26,0,0,1,100.16,103.68Zm10.55-33.63a3.28,3.28,0,0,1-2.93,1.81,3.2,3.2,0,0,1-1.46-.35L80.19,58.45a3.27,3.27,0,0,1,0-5.84l26.13-13.07a3.26,3.26,0,1,1,2.92,5.84L89,55.52l20.29,10.15A3.27,3.27,0,0,1,110.71,70.05Z"/></g></g></svg>